<?xml version="1.0" encoding="UTF-8" standalone="no"?>
<!-- Created with Inkscape (http://www.inkscape.org/) -->

<svg
   xmlns:osb="http://www.openswatchbook.org/uri/2009/osb"
   xmlns:dc="http://purl.org/dc/elements/1.1/"
   xmlns:cc="http://creativecommons.org/ns#"
   xmlns:rdf="http://www.w3.org/1999/02/22-rdf-syntax-ns#"
   xmlns:svg="http://www.w3.org/2000/svg"
   xmlns="http://www.w3.org/2000/svg"
   xmlns:sodipodi="http://sodipodi.sourceforge.net/DTD/sodipodi-0.dtd"
   xmlns:inkscape="http://www.inkscape.org/namespaces/inkscape"
   width="744.09448819"
   height="1052.3622047"
   id="svg8805"
   version="1.1"
   inkscape:version="0.91 r13725"
   sodipodi:docname="VCLFO-1.0-8HP-panel.svg">
  <defs
     id="defs8807">
    <linearGradient
       id="linearGradient5359"
       osb:paint="solid">
      <stop
         style="stop-color:#ff0000;stop-opacity:1;"
         offset="0"
         id="stop5361" />
    </linearGradient>
  </defs>
  <sodipodi:namedview
     id="base"
     pagecolor="#ffffff"
     bordercolor="#666666"
     borderopacity="1.0"
     inkscape:pageopacity="0.0"
     inkscape:pageshadow="2"
     inkscape:zoom="2.6082052"
     inkscape:cx="441.02321"
     inkscape:cy="316.19501"
     inkscape:document-units="px"
     inkscape:current-layer="layer4"
     showgrid="true"
     inkscape:snap-center="false"
     inkscape:snap-object-midpoints="true"
     inkscape:snap-to-guides="false"
     inkscape:snap-grids="true"
     inkscape:snap-midpoints="false"
     inkscape:window-width="2100"
     inkscape:window-height="1363"
     inkscape:window-x="329"
     inkscape:window-y="10"
     inkscape:window-maximized="0"
     inkscape:snap-nodes="true"
     inkscape:snap-bbox="false"
     inkscape:snap-bbox-midpoints="true"
     inkscape:snap-global="true"
     gridtolerance="4">
    <inkscape:grid
       type="xygrid"
       id="grid8813"
       empspacing="4"
       visible="true"
       enabled="true"
       snapvisiblegridlinesonly="false"
       units="in"
       spacingx="0.025in"
       spacingy="0.025in"
       color="#f700f9"
       opacity="0.1254902"
       dotted="true" />
  </sodipodi:namedview>
  <metadata
     id="metadata8810">
    <rdf:RDF>
      <cc:Work
         rdf:about="">
        <dc:format>image/svg+xml</dc:format>
        <dc:type
           rdf:resource="http://purl.org/dc/dcmitype/StillImage" />
        <dc:title />
      </cc:Work>
    </rdf:RDF>
  </metadata>
  <g
     inkscape:label="8HP panel"
     inkscape:groupmode="layer"
     id="layer1"
     style="display:inline">
    <g
       id="g4823">
      <rect
         style="fill:none;stroke:#0000ff;stroke-width:0.40926766;stroke-miterlimit:4;stroke-dasharray:none;stroke-opacity:1"
         id="rect3093"
         width="143.74339"
         height="456.60999"
         x="360.1283"
         y="507.86218" />
      <circle
         id="path3097"
         style="fill:none;stroke:#0000ff;stroke-width:0.35433072;stroke-miterlimit:4;stroke-dasharray:none;stroke-opacity:1"
         cx="387"
         cy="519.11218"
         r="5.625" />
      <circle
         style="fill:none;stroke:#0000ff;stroke-width:0.35433072;stroke-miterlimit:4;stroke-dasharray:none;stroke-opacity:1"
         id="path3099"
         cx="387"
         cy="953.36218"
         r="5.625" />
      <circle
         r="5.625"
         cy="519.11218"
         cx="477"
         style="fill:none;stroke:#0000ff;stroke-width:0.35433072;stroke-miterlimit:4;stroke-dasharray:none;stroke-opacity:1"
         id="circle5419" />
      <circle
         r="5.625"
         cy="953.36218"
         cx="477"
         id="circle5421"
         style="fill:none;stroke:#0000ff;stroke-width:0.35433072;stroke-miterlimit:4;stroke-dasharray:none;stroke-opacity:1" />
    </g>
    <path
       style="fill:none;fill-rule:evenodd;stroke:#000000;stroke-width:0.99983793px;stroke-linecap:butt;stroke-linejoin:miter;stroke-opacity:1"
       d="m 512.8001,519.25692 0,434.10928"
       id="path5597"
       inkscape:connector-curvature="0" />
    <path
       inkscape:connector-curvature="0"
       id="path4830"
       d="m 522,570.53443 0,356.15551"
       style="fill:none;fill-rule:evenodd;stroke:#000000;stroke-width:0.90562814px;stroke-linecap:butt;stroke-linejoin:miter;stroke-opacity:1" />
  </g>
  <g
     inkscape:groupmode="layer"
     id="layer3"
     inkscape:label="FP LASER HOLES"
     style="display:inline">
    <text
       xml:space="preserve"
       style="font-style:normal;font-variant:normal;font-weight:normal;font-stretch:normal;font-size:20px;line-height:125%;font-family:'Averia Sans';-inkscape-font-specification:'Averia Sans';letter-spacing:0px;word-spacing:0px;fill:#000000;fill-opacity:1;stroke:none"
       x="352.21191"
       y="792.32202"
       id="text9904"
       sodipodi:linespacing="125%"><tspan
         sodipodi:role="line"
         id="tspan9906"
         x="352.21191"
         y="792.32202" /></text>
    <ellipse
       ry="10.673117"
       rx="10.673118"
       cy="899.36218"
       cx="432"
       id="ellipse4420"
       style="display:inline;fill:none;stroke:#0000ff;stroke-width:0.35433072;stroke-miterlimit:4;stroke-dasharray:none;stroke-opacity:1" />
    <ellipse
       ry="12.247839"
       rx="12.24784"
       cy="836.36218"
       cx="477"
       id="ellipse4422"
       style="display:inline;fill:none;stroke:#0000ff;stroke-width:0.35433072;stroke-miterlimit:4;stroke-dasharray:none;stroke-opacity:1" />
    <ellipse
       style="display:inline;fill:none;stroke:#0000ff;stroke-width:0.35433072;stroke-miterlimit:4;stroke-dasharray:none;stroke-opacity:1"
       id="ellipse5434"
       cx="387"
       cy="899.36218"
       rx="10.673118"
       ry="10.673117" />
    <ellipse
       style="display:inline;fill:none;stroke:#0000ff;stroke-width:0.35433072;stroke-miterlimit:4;stroke-dasharray:none;stroke-opacity:1"
       id="ellipse5436"
       cx="405"
       cy="764.36218"
       rx="12.24784"
       ry="12.247839" />
    <ellipse
       ry="12.247839"
       rx="12.24784"
       cy="656.36218"
       cx="432"
       id="ellipse5438"
       style="display:inline;fill:none;stroke:#0000ff;stroke-width:0.35433072;stroke-miterlimit:4;stroke-dasharray:none;stroke-opacity:1" />
    <circle
       style="display:inline;fill:none;stroke:#0000ff;stroke-width:0.35433072;stroke-miterlimit:4;stroke-dasharray:none;stroke-opacity:1"
       id="ellipse5442"
       cx="432"
       cy="584.36218"
       r="10.418927" />
    <ellipse
       style="display:inline;fill:none;stroke:#0000ff;stroke-width:0.35433072;stroke-miterlimit:4;stroke-dasharray:none;stroke-opacity:1"
       id="ellipse5430"
       cx="477"
       cy="899.36218"
       rx="10.673118"
       ry="10.673117" />
    <ellipse
       ry="10.673117"
       rx="10.673118"
       cy="699.11218"
       cx="317.25"
       id="ellipse5432"
       style="display:inline;fill:none;stroke:#0000ff;stroke-width:0.35433072;stroke-miterlimit:4;stroke-dasharray:none;stroke-opacity:1" />
    <ellipse
       style="display:inline;fill:none;stroke:#0000ff;stroke-width:0.35433072;stroke-miterlimit:4;stroke-dasharray:none;stroke-opacity:1"
       id="ellipse5435"
       cx="333"
       cy="595.61218"
       rx="12.24784"
       ry="12.247839" />
    <circle
       cy="764.36218"
       cx="477"
       id="ellipse5437"
       style="display:inline;fill:none;stroke:#0000ff;stroke-width:0.35433072;stroke-miterlimit:4;stroke-dasharray:none;stroke-opacity:1"
       r="10.418927" />
    <circle
       style="display:inline;fill:none;stroke:#0000ff;stroke-width:0.29621828;stroke-miterlimit:4;stroke-dasharray:none;stroke-opacity:1"
       id="ellipse5439"
       cx="387"
       cy="836.36218"
       r="8.7101583" />
    <circle
       cy="669.86218"
       cx="308.25"
       id="ellipse5441"
       style="display:inline;fill:none;stroke:#0000ff;stroke-width:0.35433072;stroke-miterlimit:4;stroke-dasharray:none;stroke-opacity:1"
       r="5.2094636" />
    <circle
       style="display:inline;fill:none;stroke:#0000ff;stroke-width:0.35433072;stroke-miterlimit:4;stroke-dasharray:none;stroke-opacity:1"
       id="circle5443"
       cx="490.5"
       cy="800.36218"
       r="5.2094636" />
    <circle
       cy="728.36218"
       cx="490.5"
       id="circle4832"
       style="display:inline;fill:none;stroke:#0000ff;stroke-width:0.35433072;stroke-miterlimit:4;stroke-dasharray:none;stroke-opacity:1"
       r="5.2094636" />
    <circle
       r="5.2094636"
       style="display:inline;fill:none;stroke:#0000ff;stroke-width:0.35433072;stroke-miterlimit:4;stroke-dasharray:none;stroke-opacity:1"
       id="circle4834"
       cx="490.5"
       cy="584.36218" />
    <circle
       cy="584.36218"
       cx="373.5"
       id="circle4836"
       style="display:inline;fill:none;stroke:#0000ff;stroke-width:0.35433072;stroke-miterlimit:4;stroke-dasharray:none;stroke-opacity:1"
       r="5.2094636" />
    <circle
       r="5.2094636"
       style="display:inline;fill:none;stroke:#0000ff;stroke-width:0.35433072;stroke-miterlimit:4;stroke-dasharray:none;stroke-opacity:1"
       id="circle4945"
       cx="373.5"
       cy="728.36218" />
    <ellipse
       style="display:inline;fill:none;stroke:#0000ff;stroke-width:0.35433072;stroke-miterlimit:4;stroke-dasharray:none;stroke-opacity:1"
       id="ellipse4949"
       cx="432"
       cy="836.36218"
       rx="12.24784"
       ry="12.247839" />
  </g>
  <g
     inkscape:groupmode="layer"
     id="layer4"
     inkscape:label="Engravings"
     style="display:inline">
    <text
       xml:space="preserve"
       style="font-style:normal;font-variant:normal;font-weight:normal;font-stretch:normal;font-size:20px;line-height:125%;font-family:'Averia Sans';-inkscape-font-specification:'Averia Sans';letter-spacing:0px;word-spacing:0px;fill:#000000;fill-opacity:1;stroke:#ff0000;stroke-width:0.03543307;stroke-miterlimit:4;stroke-dasharray:none;stroke-opacity:1"
       x="345.08755"
       y="796.32947"
       id="text9913"
       sodipodi:linespacing="125%"><tspan
         sodipodi:role="line"
         id="tspan9915"
         x="345.08755"
         y="796.32947" /></text>
    <text
       xml:space="preserve"
       style="font-style:normal;font-variant:normal;font-weight:normal;font-stretch:normal;font-size:12px;line-height:125%;font-family:'C64 User';-inkscape-font-specification:'C64 User';letter-spacing:0px;word-spacing:0px;fill:#000000;fill-opacity:1;stroke:none"
       x="499.66638"
       y="626.3988"
       id="text3966"
       sodipodi:linespacing="125%"><tspan
         sodipodi:role="line"
         id="tspan3968"
         x="499.66638"
         y="626.3988" /></text>
    <path
       style="fill:none;stroke:#ff0000;stroke-width:0.41376916;stroke-miterlimit:4;stroke-dasharray:none;stroke-opacity:1"
       d="m 364.5,935.36218 135,0"
       id="path11004"
       inkscape:connector-curvature="0" />
    <path
       style="fill:none;stroke:#ff0000;stroke-width:0.41924977;stroke-miterlimit:4;stroke-dasharray:none;stroke-opacity:1"
       d="m 364.5,534.86218 31.5,0"
       id="path11006"
       inkscape:connector-curvature="0" />
    <text
       xml:space="preserve"
       style="font-style:normal;font-variant:normal;font-weight:normal;font-stretch:normal;font-size:15px;line-height:125%;font-family:sans-serif;-inkscape-font-specification:sans-serif;letter-spacing:0px;word-spacing:0px;fill:#000000;fill-opacity:1;stroke:none;stroke-width:1px;stroke-linecap:butt;stroke-linejoin:miter;stroke-opacity:1"
       x="371.78259"
       y="712.60486"
       id="text4491"
       sodipodi:linespacing="125%"><tspan
         sodipodi:role="line"
         id="tspan4493"
         x="371.78259"
         y="712.60486" /></text>
    <text
       xml:space="preserve"
       style="font-style:normal;font-variant:normal;font-weight:normal;font-stretch:normal;font-size:15px;line-height:125%;font-family:sans-serif;-inkscape-font-specification:sans-serif;letter-spacing:0px;word-spacing:0px;fill:#000000;fill-opacity:1;stroke:none;stroke-width:1px;stroke-linecap:butt;stroke-linejoin:miter;stroke-opacity:1"
       x="376.28259"
       y="730.60486"
       id="text4568"
       sodipodi:linespacing="125%"><tspan
         sodipodi:role="line"
         id="tspan4570"
         x="376.28259"
         y="730.60486" /></text>
    <text
       xml:space="preserve"
       style="font-style:normal;font-weight:normal;font-size:15px;line-height:125%;font-family:sans-serif;letter-spacing:0px;word-spacing:0px;fill:#000000;fill-opacity:1;stroke:none;stroke-width:1px;stroke-linecap:butt;stroke-linejoin:miter;stroke-opacity:1"
       x="267.75"
       y="660.86218"
       id="text5450"
       sodipodi:linespacing="125%"><tspan
         sodipodi:role="line"
         id="tspan5452"
         x="267.75"
         y="660.86218" /></text>
    <text
       xml:space="preserve"
       style="font-style:normal;font-variant:normal;font-weight:normal;font-stretch:normal;font-size:20px;line-height:125%;font-family:'My Underwood';-inkscape-font-specification:'My Underwood';letter-spacing:0px;word-spacing:0px;fill:#000000;fill-opacity:1;stroke:none;stroke-width:1px;stroke-linecap:butt;stroke-linejoin:miter;stroke-opacity:1"
       x="535.64642"
       y="610.21472"
       id="text5487"
       sodipodi:linespacing="125%"><tspan
         sodipodi:role="line"
         id="tspan5489"
         x="535.64642"
         y="610.21472">My Underwood 16pt</tspan></text>
    <text
       sodipodi:linespacing="125%"
       id="text5491"
       y="632.54181"
       x="535.61432"
       style="font-style:normal;font-variant:normal;font-weight:normal;font-stretch:normal;font-size:15px;line-height:125%;font-family:'My Underwood';-inkscape-font-specification:'My Underwood';letter-spacing:0px;word-spacing:0px;fill:#000000;fill-opacity:1;stroke:none;stroke-width:1px;stroke-linecap:butt;stroke-linejoin:miter;stroke-opacity:1"
       xml:space="preserve"><tspan
         y="632.54181"
         x="535.61432"
         id="tspan5493"
         sodipodi:role="line">My Underwood 12pt</tspan></text>
    <text
       xml:space="preserve"
       style="font-style:normal;font-variant:normal;font-weight:normal;font-stretch:normal;font-size:12.5px;line-height:125%;font-family:'My Underwood';-inkscape-font-specification:'My Underwood';letter-spacing:0px;word-spacing:0px;fill:#000000;fill-opacity:1;stroke:none;stroke-width:1px;stroke-linecap:butt;stroke-linejoin:miter;stroke-opacity:1"
       x="536.03326"
       y="654.28784"
       id="text5495"
       sodipodi:linespacing="125%"><tspan
         sodipodi:role="line"
         id="tspan5497"
         x="536.03326"
         y="654.28784">My Underwood 10pt</tspan></text>
    <path
       style="fill:none;fill-rule:evenodd;stroke:#ff0000;stroke-width:0.35433072;stroke-linecap:butt;stroke-linejoin:miter;stroke-miterlimit:4;stroke-dasharray:none;stroke-opacity:1"
       d="m 572.63435,791.32257 0,9 2.25,4.5"
       id="path5515"
       inkscape:connector-curvature="0" />
    <path
       style="fill:none;fill-rule:evenodd;stroke:#ff0000;stroke-width:0.35433072;stroke-linecap:butt;stroke-linejoin:miter;stroke-miterlimit:4;stroke-dasharray:none;stroke-opacity:1"
       d="m 570.42975,793.5236 0,9 -2.25,4.5 0,0 0,0"
       id="path5519"
       inkscape:connector-curvature="0" />
    <path
       style="fill:none;fill-rule:evenodd;stroke:#ff0000;stroke-width:0.35433072;stroke-linecap:butt;stroke-linejoin:miter;stroke-miterlimit:4;stroke-dasharray:none;stroke-opacity:1"
       d="m 560.88324,798.11218 12.23352,0"
       id="path5521"
       inkscape:connector-curvature="0" />
    <path
       inkscape:connector-curvature="0"
       id="path5539"
       d="m 468,534.86218 31.5,0"
       style="fill:none;stroke:#ff0000;stroke-width:0.41924977;stroke-miterlimit:4;stroke-dasharray:none;stroke-opacity:1" />
    <g
       style="font-style:normal;font-variant:normal;font-weight:normal;font-stretch:normal;font-size:12.5px;line-height:125%;font-family:'My Underwood';-inkscape-font-specification:'My Underwood';letter-spacing:0px;word-spacing:0px;fill:#000000;fill-opacity:1;stroke:none;stroke-width:1px;stroke-linecap:butt;stroke-linejoin:miter;stroke-opacity:1"
       id="text4844">
      <path
         d="m 417.48502,917.39203 2.58789,0 0,0.8728 -1.46485,0 0,9.39942 1.46485,0 0,0.8728 -2.58789,0 0,-11.14502 z"
         style=""
         id="path4363" />
      <path
         d="m 426.83111,920.4391 q 0.0375,0.3625 0.0875,0.7375 0.05,0.3625 0.075,0.725 0.0375,0.35 0.025,0.675 0,0.3125 -0.075,0.5625 -0.0875,-0.1 -0.2875,-0.225 -0.2,-0.125 -0.375,-0.125 0.3125,0.2125 0.55,0.575 0.2375,0.3625 0.35,0.8 0.1125,0.4375 0.0875,0.9 -0.025,0.4625 -0.2375,0.8625 -0.2,0.1625 -0.4125,0.25 -0.2125,0.075 -0.4,0.1625 -0.1875,0.075 -0.35,0.2 -0.15,0.125 -0.225,0.3625 -0.4875,-0.0875 -1.0125,-0.225 -0.5125,-0.1375 -1.025,-0.2375 -0.5,-0.1 -0.975,-0.1125 -0.475,-0.025 -0.875,0.1375 -0.1625,-0.1375 -0.175,-0.2625 -0.0125,-0.125 0.0375,-0.2375 0.0625,-0.125 0.1375,-0.225 0.075,-0.1125 0.0875,-0.2125 0.025,-0.1 -0.0625,-0.1875 -0.075,-0.0875 -0.35,-0.1625 l 0.225,0 0.1,-0.875 q 0.2625,-0.075 0.4625,0.025 0.2,0.0875 0.3625,0.275 0.1625,0.1875 0.3,0.4125 0.1375,0.225 0.3,0.4125 0.1625,0.175 0.3625,0.275 0.2,0.1 0.4625,0.0125 0.2875,0.125 0.5125,0.1 0.225,-0.025 0.425,-0.1 0.2125,-0.0875 0.425,-0.1875 0.2125,-0.1 0.4875,-0.1375 -0.05,-0.125 0,-0.225 0.05,-0.1 0.1375,-0.175 0.1,-0.0875 0.2,-0.15 0.1125,-0.0625 0.1875,-0.1 -0.15,-0.3625 -0.4,-0.5375 -0.25,-0.1875 -0.55,-0.275 -0.2875,-0.0875 -0.6,-0.125 -0.3125,-0.05 -0.5875,-0.1375 -0.2,0.125 -0.45,0.075 -0.2375,-0.0625 -0.4875,-0.175 -0.25,-0.125 -0.5125,-0.25 -0.2625,-0.1375 -0.5,-0.175 -0.325,-0.25 -0.4,-0.55 -0.0625,-0.3 0,-0.6125 0.0625,-0.3125 0.1875,-0.625 0.1375,-0.3125 0.2125,-0.6 0.35,-0.2625 0.7,-0.3625 0.35,-0.1125 0.7,-0.125 0.35,-0.0125 0.7125,0.05 0.3625,0.05 0.75,0.1125 0.3875,0.05 0.8,0.075 0.4125,0.0125 0.875,-0.0625 z m -2.5,0.8375 q -0.2,0.0375 -0.45,0.1125 -0.2375,0.075 -0.45,0.2 -0.2125,0.125 -0.3625,0.325 -0.1375,0.1875 -0.1375,0.4625 0.25,0.0375 0.6625,0.1625 0.4125,0.1125 0.825,0.2 0.425,0.0875 0.7875,0.1125 0.375,0.0125 0.525,-0.1625 0.075,-0.3 0.025,-0.475 -0.0375,-0.1875 -0.175,-0.2875 -0.125,-0.1125 -0.3125,-0.175 -0.175,-0.0625 -0.3625,-0.1125 -0.175,-0.0625 -0.3375,-0.1375 -0.15,-0.0875 -0.2375,-0.225 z"
         style=""
         id="path4365" />
      <path
         d="m 433.08052,921.6516 q 0,0.9875 -0.0625,1.8625 -0.0625,0.875 -0.1125,1.7 -0.05,0.825 -0.0625,1.6375 0,0.8 0.125,1.6625 0.1125,0.0875 0.1625,0.2125 0.0625,0.1375 0.125,0.25 0.0625,0.1125 0.1625,0.175 0.1,0.075 0.3125,0.0375 l 0.2125,-0.225 q 0.05,0.0875 0.125,0.15 0.075,0.075 0.125,0.1375 0.0625,0.075 0.0875,0.1625 0.0375,0.0875 -0.0125,0.2125 -0.4125,0.2375 -0.875,0.25 -0.45,0.025 -0.9,-0.0375 -0.45,-0.0625 -0.8625,-0.1375 -0.4125,-0.0625 -0.75,0.0125 -0.1375,-0.275 -0.125,-0.4 0.0125,-0.1125 0.1,-0.15 0.0875,-0.0375 0.225,-0.0375 0.15,0 0.2875,-0.05 0.15,-0.0375 0.2625,-0.1625 0.1125,-0.125 0.1375,-0.4 l 0.425,0.225 q 0.075,-0.2 0.0875,-0.4625 0.0125,-0.25 0,-0.5 0,-0.25 -0.0125,-0.4875 0,-0.225 0.0375,-0.4 -0.4125,0.2 -0.875,0.3875 -0.45,0.2 -0.9,0.2625 -0.45,0.075 -0.8625,-0.0625 -0.4125,-0.1375 -0.725,-0.5875 -0.45,-0.5375 -0.7,-1.15 -0.25,-0.625 -0.3125,-1.275 -0.05,-0.65 0.0875,-1.3125 0.15,-0.6625 0.475,-1.275 0.4875,-0.375 1.0875,-0.5625 0.6125,-0.1875 1.2375,-0.2 0.6375,-0.025 1.225,0.1125 0.5875,0.1375 1.0375,0.425 z m -3.2875,0.875 q -0.25,0.25 -0.4625,0.55 -0.2125,0.3 -0.3375,0.65 -0.1125,0.35 -0.125,0.7375 -0.0125,0.375 0.1625,0.7875 0.25,0.25 0.5125,0.525 0.275,0.275 0.5625,0.475 0.2875,0.1875 0.5875,0.25 0.3125,0.05 0.6375,-0.15 l 0,-0.5625 q 0.35,-0.05 0.5125,-0.1875 0.1625,-0.15 0.2,-0.3625 0.05,-0.2125 0.0125,-0.475 -0.0375,-0.2625 -0.0875,-0.5375 -0.0375,-0.2875 -0.0625,-0.575 -0.0125,-0.3 0.075,-0.575 -0.2,-0.25 -0.475,-0.4375 -0.275,-0.2 -0.575,-0.2875 -0.3,-0.0875 -0.6,-0.05 -0.2875,0.025 -0.5375,0.225 z"
         style=""
         id="path4367" />
      <path
         d="m 435.24693,921.1766 q 0,-0.35 0.1625,-0.55 0.175,-0.2125 0.4375,-0.2875 0.275,-0.0875 0.6,-0.0625 0.3375,0.025 0.6625,0.1375 0.325,0.1 0.6,0.275 0.275,0.175 0.4375,0.3875 0.975,-0.725 1.825,-0.675 0.85,0.05 1.7375,0.775 0.1625,0.2125 0.175,0.425 0.025,0.2 0,0.425 -0.0125,0.225 -0.025,0.475 -0.0125,0.2375 0.075,0.5125 -0.25,0.05 -0.4875,0.1 -0.2375,0.0375 -0.4625,0.0375 -0.225,-0.0125 -0.425,-0.1125 -0.1875,-0.1 -0.35,-0.35 l -0.4375,-0.85 q -0.575,0.075 -1.0625,0.45 -0.4875,0.375 -0.6625,0.95 0.0375,0.25 0,0.575 -0.0375,0.325 -0.05,0.6875 -0.0125,0.3625 0.0625,0.7375 0.075,0.3625 0.325,0.6875 0.1625,0 0.4125,0.0125 0.2625,0.0125 0.5125,0.075 0.25,0.05 0.4375,0.1875 0.2,0.1375 0.2375,0.375 -0.1125,0.2875 -0.35,0.3375 -0.225,0.0625 -0.4875,0.05 -0.2625,-0.0125 -0.5375,-0.0125 -0.2625,0 -0.4625,0.1625 -0.325,-0.125 -0.7,-0.1375 -0.375,0 -0.775,0 -0.3875,0 -0.7875,-0.05 -0.3875,-0.0375 -0.7375,-0.25 -0.125,-0.1125 -0.075,-0.25 0.0625,-0.1375 0.1875,-0.25 0.1375,-0.125 0.2875,-0.225 0.1625,-0.1 0.2375,-0.1375 0.2,0.1625 0.2875,0.125 0.0875,-0.05 0.15,-0.15 0.075,-0.1 0.175,-0.175 0.1125,-0.0875 0.3625,-0.0125 0.1625,-0.4875 0.2125,-0.975 0.05,-0.4875 0.0375,-0.9625 -0.0125,-0.4875 -0.0625,-0.9625 -0.0375,-0.4875 -0.075,-0.9625 -0.1125,-0.1125 -0.275,-0.125 -0.15,-0.025 -0.325,0 -0.1625,0.0125 -0.3375,0.0375 -0.175,0.025 -0.325,0 -0.1375,-0.025 -0.2375,-0.125 -0.1,-0.1 -0.125,-0.35 z"
         style=""
         id="path4369" />
      <path
         d="m 446.14102,917.39203 0,11.14502 -2.58789,0 0,-0.8728 1.45874,0 0,-9.39942 -1.45874,0 0,-0.8728 2.58789,0 z"
         style=""
         id="path4371" />
    </g>
    <g
       style="font-style:normal;font-variant:normal;font-weight:normal;font-stretch:normal;font-size:12.5px;line-height:125%;font-family:'My Underwood';-inkscape-font-specification:'My Underwood';letter-spacing:0px;word-spacing:0px;fill:#000000;fill-opacity:1;stroke:none;stroke-width:1px;stroke-linecap:butt;stroke-linejoin:miter;stroke-opacity:1"
       id="text4848">
      <path
         d="m 463.87711,917.00861 2.58789,0 0,0.8728 -1.46485,0 0,9.39941 1.46485,0 0,0.87281 -2.58789,0 0,-11.14502 z"
         style=""
         id="path4352" />
      <path
         d="m 470.1857,917.89318 q 0.075,0.3625 0.15,0.7625 0.075,0.3875 0.225,0.7125 0.15,0.325 0.4125,0.525 0.2625,0.2 0.7125,0.1625 0.325,-0.175 0.6875,-0.125 0.375,0.0375 0.6125,0.4375 0,0.125 -0.075,0.225 -0.0625,0.1 -0.175,0.1875 -0.1,0.0875 -0.2125,0.175 -0.1,0.075 -0.175,0.1625 -0.1375,-0.1625 -0.3625,-0.2125 -0.225,-0.05 -0.4875,-0.025 -0.2625,0.0125 -0.5375,0.0875 -0.2625,0.0625 -0.475,0.15 0,0.4875 -0.0875,0.9875 -0.0875,0.5 -0.1375,0.9875 -0.05,0.4875 0,0.95 0.05,0.45 0.3375,0.8625 0.2,0.1625 0.4,0.2125 0.2125,0.0375 0.4,0.0125 0.2,-0.0375 0.375,-0.125 0.175,-0.1 0.3375,-0.2125 0.25,-0.2375 0.325,-0.5 0.0875,-0.275 0.175,-0.5125 0.0875,-0.25 0.2375,-0.4375 0.1625,-0.2 0.5625,-0.275 0.1625,0.3625 0.2,0.625 0.0375,0.2625 0.025,0.5125 0,0.2375 -0.025,0.5 -0.025,0.2625 0.025,0.625 -0.2,0.2 -0.5375,0.45 -0.325,0.2375 -0.7125,0.425 -0.375,0.1875 -0.7875,0.2875 -0.4125,0.1 -0.7625,0.025 -0.325,-0.1625 -0.6375,-0.3875 -0.3125,-0.225 -0.55,-0.5 -0.225,-0.2875 -0.35,-0.625 -0.125,-0.35 -0.075,-0.75 -0.0625,-0.275 -0.0375,-0.6 0.025,-0.3375 0.0625,-0.675 0.05,-0.35 0.0625,-0.6875 0.025,-0.3375 -0.0375,-0.6125 -0.0625,-0.2875 -0.25,-0.4875 -0.1875,-0.2125 -0.5625,-0.3 -0.1625,0.0875 -0.3125,0.1125 -0.15,0.025 -0.225,0.1125 l -0.1,-0.975 q 0.475,0.1875 0.75,0.1125 0.2875,-0.0875 0.45,-0.3125 0.1625,-0.2375 0.25,-0.5625 0.0875,-0.325 0.1875,-0.6375 0.1125,-0.3125 0.2625,-0.55 0.1625,-0.25 0.4625,-0.3 z"
         style=""
         id="path4354" />
      <path
         d="m 474.53453,920.79318 q 0,-0.35 0.1625,-0.55 0.175,-0.2125 0.4375,-0.2875 0.275,-0.0875 0.6,-0.0625 0.3375,0.025 0.6625,0.1375 0.325,0.1 0.6,0.275 0.275,0.175 0.4375,0.3875 0.975,-0.725 1.825,-0.675 0.85,0.05 1.7375,0.775 0.1625,0.2125 0.175,0.425 0.025,0.2 0,0.425 -0.0125,0.225 -0.025,0.475 -0.0125,0.2375 0.075,0.5125 -0.25,0.05 -0.4875,0.1 -0.2375,0.0375 -0.4625,0.0375 -0.225,-0.0125 -0.425,-0.1125 -0.1875,-0.1 -0.35,-0.35 l -0.4375,-0.85 q -0.575,0.075 -1.0625,0.45 -0.4875,0.375 -0.6625,0.95 0.0375,0.25 0,0.575 -0.0375,0.325 -0.05,0.6875 -0.0125,0.3625 0.0625,0.7375 0.075,0.3625 0.325,0.6875 0.1625,0 0.4125,0.0125 0.2625,0.0125 0.5125,0.075 0.25,0.05 0.4375,0.1875 0.2,0.1375 0.2375,0.375 -0.1125,0.2875 -0.35,0.3375 -0.225,0.0625 -0.4875,0.05 -0.2625,-0.0125 -0.5375,-0.0125 -0.2625,0 -0.4625,0.1625 -0.325,-0.125 -0.7,-0.1375 -0.375,0 -0.775,0 -0.3875,0 -0.7875,-0.05 -0.3875,-0.0375 -0.7375,-0.25 -0.125,-0.1125 -0.075,-0.25 0.0625,-0.1375 0.1875,-0.25 0.1375,-0.125 0.2875,-0.225 0.1625,-0.1 0.2375,-0.1375 0.2,0.1625 0.2875,0.125 0.0875,-0.05 0.15,-0.15 0.075,-0.1 0.175,-0.175 0.1125,-0.0875 0.3625,-0.0125 0.1625,-0.4875 0.2125,-0.975 0.05,-0.4875 0.0375,-0.9625 -0.0125,-0.4875 -0.0625,-0.9625 -0.0375,-0.4875 -0.075,-0.9625 -0.1125,-0.1125 -0.275,-0.125 -0.15,-0.025 -0.325,0 -0.1625,0.0125 -0.3375,0.0375 -0.175,0.025 -0.325,0 -0.1375,-0.025 -0.2375,-0.125 -0.1,-0.1 -0.125,-0.35 z"
         style=""
         id="path4356" />
      <path
         d="m 483.81363,918.49318 q 0.125,-0.0375 0.35,-0.1 0.2375,-0.0625 0.4625,-0.05 0.225,0.0125 0.375,0.1375 0.1625,0.125 0.125,0.45 0.0375,0.1125 0,0.25 -0.0375,0.125 -0.125,0.25 -0.0875,0.125 -0.2,0.225 -0.1125,0.1 -0.2375,0.1375 -0.2125,-0.0875 -0.425,-0.2125 -0.2125,-0.125 -0.3625,-0.2875 -0.1375,-0.1625 -0.15,-0.3625 -0.0125,-0.2 0.1875,-0.4375 z m -0.7625,1.725 q 0.1375,0.1125 0.3375,0.125 0.2,0 0.4125,-0.025 0.225,-0.025 0.45,-0.05 0.225,-0.025 0.4,0.025 0.1875,0.05 0.3125,0.2 0.125,0.15 0.1625,0.4625 -0.05,0.6 -0.0375,1.15 0.0125,0.5375 0.075,1.075 0.0625,0.525 0.15,1.0625 0.1,0.5375 0.225,1.1375 0.1625,0.1625 0.45,0.1875 0.3,0.025 0.575,0.0625 0.2875,0.0375 0.4875,0.1875 0.2125,0.1375 0.2125,0.5375 -0.65,0.0875 -1.2875,0.1875 -0.625,0.1 -1.2625,0.15 -0.6375,0.05 -1.2875,0.0125 -0.65,-0.0375 -1.3375,-0.2375 -0.125,-0.125 -0.1375,-0.2625 0,-0.1375 0.05,-0.2625 0.0625,-0.1375 0.175,-0.25 0.1125,-0.125 0.2375,-0.2 0.4,0.325 0.8,0.2125 0.4125,-0.125 0.8,-0.525 0.175,-0.975 0.1625,-1.875 0,-0.9125 -0.25,-1.8 l -1.8375,-0.325 q -0.125,-0.3625 -0.05,-0.5 0.075,-0.1375 0.25,-0.1875 0.175,-0.05 0.3875,-0.075 0.2125,-0.0375 0.375,-0.2 z"
         style=""
         id="path4358" />
      <path
         d="m 491.38565,917.00861 0,11.14502 -2.58789,0 0,-0.87281 1.45874,0 0,-9.39941 -1.45874,0 0,-0.8728 2.58789,0 z"
         style=""
         id="path4360" />
    </g>
    <g
       style="font-style:normal;font-variant:normal;font-weight:normal;font-stretch:normal;font-size:12.5px;line-height:125%;font-family:'My Underwood';-inkscape-font-specification:'My Underwood';letter-spacing:0px;word-spacing:0px;fill:#000000;fill-opacity:1;stroke:none;stroke-width:1px;stroke-linecap:butt;stroke-linejoin:miter;stroke-opacity:1"
       id="text4852">
      <path
         d="m 376.67347,918.28074 q 0.725,-0.1625 1.35,0.0125 0.6375,0.1625 1.125,0.4 0.05,0.25 0.15,0.475 0.1,0.225 0.1625,0.45 0.075,0.2125 0.075,0.45 0,0.225 -0.1625,0.4625 -0.125,0.25 -0.2875,0.275 -0.1625,0.025 -0.3375,-0.025 -0.1625,-0.0625 -0.3375,-0.15 -0.175,-0.1 -0.3375,-0.1 -0.1625,-0.1625 -0.175,-0.3 -0.0125,-0.15 0.0375,-0.275 0.05,-0.1375 0.125,-0.2625 0.0875,-0.125 0.1,-0.2375 0.025,-0.1125 -0.0625,-0.2125 -0.075,-0.1125 -0.3375,-0.2125 l -1.2,0.3125 q 0.0375,0.125 0.075,0.3375 0.0375,0.2 0.1,0.425 0.075,0.2125 0.2,0.425 0.1375,0.2 0.375,0.3125 -0.1625,0.175 -0.3125,0.2125 -0.1375,0.0375 -0.275,0.0375 -0.1375,0 -0.2875,0 -0.1375,0 -0.3,0.0875 -0.125,0.6 -0.1875,1.075 -0.0625,0.475 -0.0625,0.925 0,0.4375 0.0625,0.9125 0.0625,0.475 0.1875,1.0875 0.2375,0.15 0.55,0.2125 0.325,0.05 0.6,0.1375 0.2875,0.075 0.475,0.25 0.2,0.175 0.2,0.575 -0.525,0.1625 -1.1,0.2375 -0.575,0.0875 -1.175,0.0875 -0.5875,0 -1.1875,-0.0875 -0.6,-0.075 -1.1625,-0.2375 l 0.325,-0.8625 q 0.1125,0.0375 0.225,0.1125 0.125,0.0625 0.25,0.1 0.125,0.0375 0.2375,0.025 0.125,-0.0125 0.2375,-0.1375 0.375,-0.3625 0.45,-0.8125 0.0875,-0.45 0.0375,-0.9625 -0.05,-0.5125 -0.15,-1.0625 -0.1,-0.5625 -0.1,-1.125 -0.1,-0.1375 -0.2875,-0.2 -0.175,-0.0625 -0.3625,-0.0875 -0.1875,-0.0375 -0.375,-0.075 -0.1875,-0.0375 -0.3125,-0.1125 -0.1125,-0.0875 -0.15,-0.25 -0.0375,-0.175 0.075,-0.475 0.0875,-0.075 0.225,-0.1875 0.1375,-0.1125 0.3125,-0.025 0.0875,0.1125 0.2375,0.125 0.15,0.0125 0.325,-0.05 0.175,-0.075 0.3375,-0.2 0.175,-0.1375 0.2875,-0.3 0.075,-0.25 0.2,-0.5125 0.125,-0.275 0.3125,-0.4875 0.1875,-0.225 0.425,-0.3625 0.25,-0.15 0.575,-0.15 z"
         style=""
         id="path4374" />
      <path
         d="m 381.43792,923.89324 q 0.3375,-0.0375 0.6375,0.05 0.3,0.0875 0.525,0.275 0.2375,0.1875 0.3875,0.45 0.1625,0.25 0.2,0.525 0,0.4125 -0.3,0.775 -0.2875,0.35 -0.6875,0.5125 -0.325,0.175 -0.6375,0.1375 -0.3,-0.025 -0.575,-0.175 -0.275,-0.1625 -0.4875,-0.425 -0.2125,-0.275 -0.325,-0.5875 -0.175,-0.2875 -0.0625,-0.5 0.125,-0.2125 0.3625,-0.3875 0.25,-0.175 0.525,-0.325 0.2875,-0.15 0.4375,-0.325 z"
         style=""
         id="path4376" />
      <path
         d="m 384.53577,920.84324 q 0.3,-0.35 0.7,-0.55 0.4125,-0.2 0.85,-0.25 0.45,-0.0625 0.9,0.025 0.45,0.0875 0.8375,0.3 0.4,0.2125 0.7,0.5625 0.3,0.3375 0.4375,0.8 0.0375,0.2375 0,0.4875 -0.0375,0.25 -0.1625,0.4625 -0.125,0.2 -0.3375,0.3375 -0.2,0.125 -0.475,0.125 -0.375,-0.025 -0.55,-0.225 -0.1625,-0.2125 -0.225,-0.4875 -0.0625,-0.275 -0.1,-0.5625 -0.025,-0.3 -0.125,-0.525 -0.1,-0.225 -0.3375,-0.3125 -0.2375,-0.1 -0.725,0.0375 -0.3625,0.2125 -0.6625,0.55 -0.3,0.3375 -0.5,0.7625 -0.1875,0.425 -0.2375,0.9125 -0.0375,0.4875 0.125,1.0125 0.325,0.575 0.7875,0.85 0.475,0.275 1.0375,0.4375 0.325,0 0.625,-0.1625 0.3,-0.1625 0.5625,-0.4125 0.2625,-0.25 0.475,-0.55 0.225,-0.3 0.3875,-0.5875 0.325,0.075 0.4125,0.3125 0.0875,0.225 0.0625,0.5 -0.0125,0.275 -0.0875,0.5375 -0.0625,0.25 -0.0625,0.3625 -0.25,0.2875 -0.5625,0.525 -0.3125,0.2375 -0.675,0.3875 -0.3625,0.15 -0.7625,0.2 -0.4,0.0625 -0.8,-0.025 -0.525,-0.0375 -0.8375,-0.2875 -0.3125,-0.25 -0.5375,-0.5875 -0.225,-0.35 -0.425,-0.725 -0.1875,-0.375 -0.4625,-0.6625 0,-0.4125 -0.0375,-0.9 -0.025,-0.5 0.0125,-1 0.0375,-0.5 0.2,-0.9375 0.175,-0.4375 0.575,-0.7375 z"
         style=""
         id="path4378" />
      <path
         d="m 394.75823,920.31824 q 0.2,0.125 0.475,0.1125 0.2875,-0.025 0.5625,-0.025 0.2875,0 0.525,0.1 0.25,0.1 0.375,0.4625 -0.625,0.2125 -0.9875,0.6 -0.35,0.375 -0.5625,0.8625 -0.2125,0.475 -0.325,1.0375 -0.1125,0.5625 -0.25,1.15 -0.125,0.575 -0.325,1.1375 -0.2,0.55 -0.575,1.0375 -0.325,0.1625 -0.55,0.1375 -0.225,-0.0125 -0.3875,-0.15 -0.15,-0.1375 -0.25,-0.3625 -0.1,-0.225 -0.1875,-0.475 -0.075,-0.25 -0.1625,-0.4875 -0.075,-0.2375 -0.175,-0.4 -0.1875,-0.2875 -0.3,-0.675 -0.1125,-0.3875 -0.2125,-0.8 -0.0875,-0.4125 -0.2,-0.8 -0.1125,-0.4 -0.3125,-0.725 -0.2,-0.325 -0.525,-0.525 -0.325,-0.2125 -0.825,-0.25 l 0,-0.625 q 0.3625,-0.0875 0.9,-0.2125 0.5375,-0.125 1.075,-0.125 0.5375,-0.0125 0.975,0.2 0.4375,0.2 0.5875,0.7625 -0.15,0 -0.2625,0.0875 -0.1,0.0875 -0.1875,0.2125 -0.0875,0.125 -0.1625,0.2625 -0.0625,0.125 -0.1375,0.2125 0.0875,0.1 0.1375,0.275 0.05,0.175 0.1,0.3625 0.05,0.175 0.1125,0.3375 0.0625,0.1625 0.1625,0.25 0.1125,0.075 0.2625,0.05 0.1625,-0.025 0.4125,-0.2125 0.2125,-0.2375 0.2125,-0.55 0,-0.325 -0.075,-0.6625 -0.075,-0.3375 -0.15,-0.65 -0.075,-0.325 -0.0125,-0.55 0.0625,-0.2375 0.325,-0.35 0.275,-0.1125 0.9,-0.0375 z"
         style=""
         id="path4380" />
    </g>
    <g
       style="font-style:normal;font-variant:normal;font-weight:normal;font-stretch:normal;font-size:12.5px;line-height:125%;font-family:'My Underwood';-inkscape-font-specification:'My Underwood';letter-spacing:0px;word-spacing:0px;fill:#000000;fill-opacity:1;stroke:none;stroke-width:1px;stroke-linecap:butt;stroke-linejoin:miter;stroke-opacity:1"
       id="text4856">
      <path
         d="m 404.27863,710.09165 q 0.725,-0.1625 1.35,0.0125 0.6375,0.1625 1.125,0.4 0.05,0.25 0.15,0.475 0.1,0.225 0.1625,0.45 0.075,0.2125 0.075,0.45 0,0.225 -0.1625,0.4625 -0.125,0.25 -0.2875,0.275 -0.1625,0.025 -0.3375,-0.025 -0.1625,-0.0625 -0.3375,-0.15 -0.175,-0.1 -0.3375,-0.1 -0.1625,-0.1625 -0.175,-0.3 -0.0125,-0.15 0.0375,-0.275 0.05,-0.1375 0.125,-0.2625 0.0875,-0.125 0.1,-0.2375 0.025,-0.1125 -0.0625,-0.2125 -0.075,-0.1125 -0.3375,-0.2125 l -1.2,0.3125 q 0.0375,0.125 0.075,0.3375 0.0375,0.2 0.1,0.425 0.075,0.2125 0.2,0.425 0.1375,0.2 0.375,0.3125 -0.1625,0.175 -0.3125,0.2125 -0.1375,0.0375 -0.275,0.0375 -0.1375,0 -0.2875,0 -0.1375,0 -0.3,0.0875 -0.125,0.6 -0.1875,1.075 -0.0625,0.475 -0.0625,0.925 0,0.4375 0.0625,0.9125 0.0625,0.475 0.1875,1.0875 0.2375,0.15 0.55,0.2125 0.325,0.05 0.6,0.1375 0.2875,0.075 0.475,0.25 0.2,0.175 0.2,0.575 -0.525,0.1625 -1.1,0.2375 -0.575,0.0875 -1.175,0.0875 -0.5875,0 -1.1875,-0.0875 -0.6,-0.075 -1.1625,-0.2375 l 0.325,-0.8625 q 0.1125,0.0375 0.225,0.1125 0.125,0.0625 0.25,0.1 0.125,0.0375 0.2375,0.025 0.125,-0.0125 0.2375,-0.1375 0.375,-0.3625 0.45,-0.8125 0.0875,-0.45 0.0375,-0.9625 -0.05,-0.5125 -0.15,-1.0625 -0.1,-0.5625 -0.1,-1.125 -0.1,-0.1375 -0.2875,-0.2 -0.175,-0.0625 -0.3625,-0.0875 -0.1875,-0.0375 -0.375,-0.075 -0.1875,-0.0375 -0.3125,-0.1125 -0.1125,-0.0875 -0.15,-0.25 -0.0375,-0.175 0.075,-0.475 0.0875,-0.075 0.225,-0.1875 0.1375,-0.1125 0.3125,-0.025 0.0875,0.1125 0.2375,0.125 0.15,0.0125 0.325,-0.05 0.175,-0.075 0.3375,-0.2 0.175,-0.1375 0.2875,-0.3 0.075,-0.25 0.2,-0.5125 0.125,-0.275 0.3125,-0.4875 0.1875,-0.225 0.425,-0.3625 0.25,-0.15 0.575,-0.15 z"
         style=""
         id="path4396" />
      <path
         d="m 407.93058,712.60415 q 0,-0.35 0.1625,-0.55 0.175,-0.2125 0.4375,-0.2875 0.275,-0.0875 0.6,-0.0625 0.3375,0.025 0.6625,0.1375 0.325,0.1 0.6,0.275 0.275,0.175 0.4375,0.3875 0.975,-0.725 1.825,-0.675 0.85,0.05 1.7375,0.775 0.1625,0.2125 0.175,0.425 0.025,0.2 0,0.425 -0.0125,0.225 -0.025,0.475 -0.0125,0.2375 0.075,0.5125 -0.25,0.05 -0.4875,0.1 -0.2375,0.0375 -0.4625,0.0375 -0.225,-0.0125 -0.425,-0.1125 -0.1875,-0.1 -0.35,-0.35 l -0.4375,-0.85 q -0.575,0.075 -1.0625,0.45 -0.4875,0.375 -0.6625,0.95 0.0375,0.25 0,0.575 -0.0375,0.325 -0.05,0.6875 -0.0125,0.3625 0.0625,0.7375 0.075,0.3625 0.325,0.6875 0.1625,0 0.4125,0.0125 0.2625,0.0125 0.5125,0.075 0.25,0.05 0.4375,0.1875 0.2,0.1375 0.2375,0.375 -0.1125,0.2875 -0.35,0.3375 -0.225,0.0625 -0.4875,0.05 -0.2625,-0.0125 -0.5375,-0.0125 -0.2625,0 -0.4625,0.1625 -0.325,-0.125 -0.7,-0.1375 -0.375,0 -0.775,0 -0.3875,0 -0.7875,-0.05 -0.3875,-0.0375 -0.7375,-0.25 -0.125,-0.1125 -0.075,-0.25 0.0625,-0.1375 0.1875,-0.25 0.1375,-0.125 0.2875,-0.225 0.1625,-0.1 0.2375,-0.1375 0.2,0.1625 0.2875,0.125 0.0875,-0.05 0.15,-0.15 0.075,-0.1 0.175,-0.175 0.1125,-0.0875 0.3625,-0.0125 0.1625,-0.4875 0.2125,-0.975 0.05,-0.4875 0.0375,-0.9625 -0.0125,-0.4875 -0.0625,-0.9625 -0.0375,-0.4875 -0.075,-0.9625 -0.1125,-0.1125 -0.275,-0.125 -0.15,-0.025 -0.325,0 -0.1625,0.0125 -0.3375,0.0375 -0.175,0.025 -0.325,0 -0.1375,-0.025 -0.2375,-0.125 -0.1,-0.1 -0.125,-0.35 z"
         style=""
         id="path4398" />
      <path
         d="m 421.24719,714.06665 q 0.1875,0.425 0.1375,0.675 -0.0375,0.2375 -0.2375,0.35 -0.2,0.1125 -0.5125,0.1375 -0.3,0.0125 -0.625,0.0125 -0.325,-0.0125 -0.625,-0.0125 -0.3,-0.0125 -0.4875,0.0375 -0.325,0.0375 -0.675,-0.025 -0.35,-0.075 -0.7125,-0.1125 -0.35,-0.0375 -0.7125,0.0125 -0.3625,0.05 -0.725,0.325 0.075,0.4125 0.3,0.675 0.225,0.2625 0.525,0.45 0.3,0.1875 0.625,0.35 0.3375,0.1625 0.625,0.3625 0.2,-0.2 0.4125,-0.1875 0.225,0.0125 0.4125,0.0375 0.1875,0.0125 0.3125,-0.05 0.125,-0.075 0.125,-0.4375 0.2875,0.075 0.425,-0.05 0.15,-0.1375 0.275,-0.3 0.1375,-0.1625 0.325,-0.2625 0.2,-0.1 0.6,0.0625 l -0.55,1.7375 q -0.15,0 -0.3625,0.025 -0.2,0.025 -0.425,0.1 -0.2125,0.0625 -0.425,0.1875 -0.2125,0.125 -0.375,0.325 -0.375,-0.0375 -0.7875,-0.15 -0.4125,-0.1 -0.8125,-0.275 -0.4,-0.1875 -0.775,-0.45 -0.3625,-0.2625 -0.65,-0.625 -0.4,-0.9125 -0.525,-1.8 -0.125,-0.9 0.2,-1.875 0.4875,-0.575 1.0125,-0.9125 0.525,-0.3375 1.2375,-0.5875 0.6875,-0.125 1.2,0.1125 0.525,0.225 0.925,0.6125 0.4125,0.375 0.725,0.8125 0.3125,0.4375 0.6,0.7125 z m -3.35,-1.4125 q -1.0875,0.1625 -1.6125,1.3 0.375,0.125 0.8125,0.1375 0.4375,0.0125 0.9,0 0.4625,-0.025 0.9375,-0.0375 0.475,-0.025 0.925,0.0125 0,-0.3625 -0.2125,-0.6375 -0.2125,-0.2875 -0.525,-0.4625 -0.3,-0.1875 -0.6375,-0.2625 -0.3375,-0.0875 -0.5875,-0.05 z"
         style=""
         id="path4400" />
      <path
         d="m 427.24855,713.07915 q 0,0.9875 -0.0625,1.8625 -0.0625,0.875 -0.1125,1.7 -0.05,0.825 -0.0625,1.6375 0,0.8 0.125,1.6625 0.1125,0.0875 0.1625,0.2125 0.0625,0.1375 0.125,0.25 0.0625,0.1125 0.1625,0.175 0.1,0.075 0.3125,0.0375 l 0.2125,-0.225 q 0.05,0.0875 0.125,0.15 0.075,0.075 0.125,0.1375 0.0625,0.075 0.0875,0.1625 0.0375,0.0875 -0.0125,0.2125 -0.4125,0.2375 -0.875,0.25 -0.45,0.025 -0.9,-0.0375 -0.45,-0.0625 -0.8625,-0.1375 -0.4125,-0.0625 -0.75,0.0125 -0.1375,-0.275 -0.125,-0.4 0.0125,-0.1125 0.1,-0.15 0.0875,-0.0375 0.225,-0.0375 0.15,0 0.2875,-0.05 0.15,-0.0375 0.2625,-0.1625 0.1125,-0.125 0.1375,-0.4 l 0.425,0.225 q 0.075,-0.2 0.0875,-0.4625 0.0125,-0.25 0,-0.5 0,-0.25 -0.0125,-0.4875 0,-0.225 0.0375,-0.4 -0.4125,0.2 -0.875,0.3875 -0.45,0.2 -0.9,0.2625 -0.45,0.075 -0.8625,-0.0625 -0.4125,-0.1375 -0.725,-0.5875 -0.45,-0.5375 -0.7,-1.15 -0.25,-0.625 -0.3125,-1.275 -0.05,-0.65 0.0875,-1.3125 0.15,-0.6625 0.475,-1.275 0.4875,-0.375 1.0875,-0.5625 0.6125,-0.1875 1.2375,-0.2 0.6375,-0.025 1.225,0.1125 0.5875,0.1375 1.0375,0.425 z m -3.2875,0.875 q -0.25,0.25 -0.4625,0.55 -0.2125,0.3 -0.3375,0.65 -0.1125,0.35 -0.125,0.7375 -0.0125,0.375 0.1625,0.7875 0.25,0.25 0.5125,0.525 0.275,0.275 0.5625,0.475 0.2875,0.1875 0.5875,0.25 0.3125,0.05 0.6375,-0.15 l 0,-0.5625 q 0.35,-0.05 0.5125,-0.1875 0.1625,-0.15 0.2,-0.3625 0.05,-0.2125 0.0125,-0.475 -0.0375,-0.2625 -0.0875,-0.5375 -0.0375,-0.2875 -0.0625,-0.575 -0.0125,-0.3 0.075,-0.575 -0.2,-0.25 -0.475,-0.4375 -0.275,-0.2 -0.575,-0.2875 -0.3,-0.0875 -0.6,-0.05 -0.2875,0.025 -0.5375,0.225 z"
         style=""
         id="path4402" />
      <path
         d="m 435.82746,718.16665 0.325,0 q 0.1625,0.325 0.075,0.4375 -0.0875,0.1125 -0.2875,0.1375 -0.1875,0.0375 -0.4125,0.05 -0.225,0.0125 -0.35,0.1375 -0.1875,0.1125 -0.325,0.05 -0.1375,-0.05 -0.2625,-0.175 -0.125,-0.125 -0.25,-0.275 -0.125,-0.15 -0.275,-0.25 -0.15,-0.1 -0.35,-0.0875 -0.2,0 -0.4625,0.1875 -0.3375,0.1625 -0.6375,0.275 -0.2875,0.1125 -0.575,0.125 -0.275,0.025 -0.5625,-0.0625 -0.2875,-0.0875 -0.6125,-0.3375 -0.4125,-0.375 -0.55,-0.8375 -0.125,-0.4625 -0.1375,-0.9625 -0.0125,-0.5 0.025,-1 0.0375,-0.5125 -0.0125,-0.9625 -0.05,-0.4625 -0.275,-0.85 -0.225,-0.4 -0.7625,-0.675 l 0,-0.3125 q 0.1625,0 0.3375,-0.05 0.1875,-0.05 0.375,-0.0875 0.1875,-0.05 0.3875,-0.075 0.2,-0.025 0.4,0.0125 0.35,0.475 0.4375,0.95 0.1,0.475 0.0875,0.9375 -0.0125,0.4625 -0.0625,0.9125 -0.0375,0.45 0.025,0.8875 0.0625,0.4375 0.3,0.8625 0.25,0.4125 0.825,0.8125 0.0375,-0.075 0.0875,-0.1125 0.0625,-0.05 0.1,-0.0875 0.05,-0.0375 0.0625,-0.0875 0.0125,-0.05 -0.0375,-0.125 l -0.1125,-0.1 q 0.1625,0.075 0.275,-0.05 0.125,-0.1375 0.25,-0.3 0.125,-0.1625 0.275,-0.275 0.1625,-0.125 0.4,-0.05 l 0,-0.5375 q 0.075,0.05 0.1375,0.0375 0.0625,-0.0125 0.125,-0.05 0.0625,-0.0375 0.125,-0.0875 0.0625,-0.0625 0.15,-0.1 -0.1875,-0.1 -0.225,-0.25 -0.025,-0.1625 0.0125,-0.3375 0.0375,-0.175 0.1,-0.35 0.075,-0.175 0.075,-0.3125 0,-0.15 -0.1,-0.2375 -0.1,-0.1 -0.4,-0.125 l 0.5375,-0.225 -1.5,-1.0875 q 0.1625,-0.4 0.4375,-0.5125 0.2875,-0.1125 0.6125,-0.075 0.3375,0.025 0.675,0.1375 0.35,0.1 0.6375,0.1375 0.075,0.6375 0.1,1.275 0.0375,0.625 0.05,1.25 0.0125,0.6125 0.0125,1.225 0.0125,0.6 0.05,1.2125 l 0.65,0.425 z"
         style=""
         id="path4404" />
      <path
         d="m 442.58508,714.06665 q 0.1875,0.425 0.1375,0.675 -0.0375,0.2375 -0.2375,0.35 -0.2,0.1125 -0.5125,0.1375 -0.3,0.0125 -0.625,0.0125 -0.325,-0.0125 -0.625,-0.0125 -0.3,-0.0125 -0.4875,0.0375 -0.325,0.0375 -0.675,-0.025 -0.35,-0.075 -0.7125,-0.1125 -0.35,-0.0375 -0.7125,0.0125 -0.3625,0.05 -0.725,0.325 0.075,0.4125 0.3,0.675 0.225,0.2625 0.525,0.45 0.3,0.1875 0.625,0.35 0.3375,0.1625 0.625,0.3625 0.2,-0.2 0.4125,-0.1875 0.225,0.0125 0.4125,0.0375 0.1875,0.0125 0.3125,-0.05 0.125,-0.075 0.125,-0.4375 0.2875,0.075 0.425,-0.05 0.15,-0.1375 0.275,-0.3 0.1375,-0.1625 0.325,-0.2625 0.2,-0.1 0.6,0.0625 l -0.55,1.7375 q -0.15,0 -0.3625,0.025 -0.2,0.025 -0.425,0.1 -0.2125,0.0625 -0.425,0.1875 -0.2125,0.125 -0.375,0.325 -0.375,-0.0375 -0.7875,-0.15 -0.4125,-0.1 -0.8125,-0.275 -0.4,-0.1875 -0.775,-0.45 -0.3625,-0.2625 -0.65,-0.625 -0.4,-0.9125 -0.525,-1.8 -0.125,-0.9 0.2,-1.875 0.4875,-0.575 1.0125,-0.9125 0.525,-0.3375 1.2375,-0.5875 0.6875,-0.125 1.2,0.1125 0.525,0.225 0.925,0.6125 0.4125,0.375 0.725,0.8125 0.3125,0.4375 0.6,0.7125 z m -3.35,-1.4125 q -1.0875,0.1625 -1.6125,1.3 0.375,0.125 0.8125,0.1375 0.4375,0.0125 0.9,0 0.4625,-0.025 0.9375,-0.0375 0.475,-0.025 0.925,0.0125 0,-0.3625 -0.2125,-0.6375 -0.2125,-0.2875 -0.525,-0.4625 -0.3,-0.1875 -0.6375,-0.2625 -0.3375,-0.0875 -0.5875,-0.05 z"
         style=""
         id="path4406" />
      <path
         d="m 444.24894,712.06665 q 0.375,0.275 0.875,0.3 0.5125,0.025 1.05,-0.025 0.5375,-0.0625 1.0625,-0.125 0.525,-0.0625 0.9625,0.0375 0.4375,0.1 0.7375,0.45 0.3,0.35 0.3875,1.1 0.0875,0.4875 0.0875,1.025 0,0.525 0.0625,1.0375 0.075,0.5125 0.3,0.9875 0.225,0.4625 0.75,0.825 -0.0875,0.325 -0.275,0.475 -0.1875,0.15 -0.45,0.2 -0.25,0.05 -0.5625,0.0125 -0.3125,-0.025 -0.6375,-0.0625 -0.3125,-0.0375 -0.625,-0.0375 -0.3125,-0.0125 -0.5875,0.0625 -0.1625,-0.35 -0.1,-0.5625 0.0625,-0.225 0.2375,-0.3625 0.175,-0.15 0.4,-0.2625 0.2375,-0.1125 0.4125,-0.25 0.175,-0.15 0.2375,-0.3625 0.0625,-0.2125 -0.1,-0.5625 -0.0375,-0.375 -0.025,-0.8 0.0125,-0.4375 -0.025,-0.8625 -0.025,-0.425 -0.1625,-0.8125 -0.125,-0.3875 -0.4375,-0.675 -0.4125,-0.075 -0.7875,0.025 -0.375,0.1 -0.7125,0.3125 -0.3375,0.2125 -0.6125,0.5 -0.275,0.2875 -0.475,0.5625 0.075,0.325 0.05,0.6875 -0.0125,0.3625 -0.0375,0.725 -0.025,0.35 -0.025,0.7 0,0.3375 0.1125,0.6375 0.125,0.2875 0.4,0.5 0.275,0.2125 0.8,0.325 l 0.2,0 q 0.05,0.2125 -0.0875,0.325 -0.125,0.1125 -0.375,0.1625 -0.25,0.0375 -0.575,0.0375 -0.325,0 -0.675,0 -0.3375,-0.0125 -0.6625,0.0125 -0.3125,0.025 -0.525,0.1 -0.25,-0.075 -0.375,-0.225 -0.1125,-0.15 -0.2625,-0.3125 0.2,-0.2375 0.4625,-0.4125 0.2625,-0.1875 0.5,-0.375 0.25,-0.2 0.425,-0.4375 0.175,-0.2375 0.2125,-0.6 -0.2125,-0.3625 -0.25,-0.875 -0.025,-0.525 -0.025,-1.075 0,-0.5625 -0.0375,-1.1 -0.0375,-0.5375 -0.2375,-0.95 z"
         style=""
         id="path4408" />
      <path
         d="m 451.76496,712.65415 q 0.3,-0.35 0.7,-0.55 0.4125,-0.2 0.85,-0.25 0.45,-0.0625 0.9,0.025 0.45,0.0875 0.8375,0.3 0.4,0.2125 0.7,0.5625 0.3,0.3375 0.4375,0.8 0.0375,0.2375 0,0.4875 -0.0375,0.25 -0.1625,0.4625 -0.125,0.2 -0.3375,0.3375 -0.2,0.125 -0.475,0.125 -0.375,-0.025 -0.55,-0.225 -0.1625,-0.2125 -0.225,-0.4875 -0.0625,-0.275 -0.1,-0.5625 -0.025,-0.3 -0.125,-0.525 -0.1,-0.225 -0.3375,-0.3125 -0.2375,-0.1 -0.725,0.0375 -0.3625,0.2125 -0.6625,0.55 -0.3,0.3375 -0.5,0.7625 -0.1875,0.425 -0.2375,0.9125 -0.0375,0.4875 0.125,1.0125 0.325,0.575 0.7875,0.85 0.475,0.275 1.0375,0.4375 0.325,0 0.625,-0.1625 0.3,-0.1625 0.5625,-0.4125 0.2625,-0.25 0.475,-0.55 0.225,-0.3 0.3875,-0.5875 0.325,0.075 0.4125,0.3125 0.0875,0.225 0.0625,0.5 -0.0125,0.275 -0.0875,0.5375 -0.0625,0.25 -0.0625,0.3625 -0.25,0.2875 -0.5625,0.525 -0.3125,0.2375 -0.675,0.3875 -0.3625,0.15 -0.7625,0.2 -0.4,0.0625 -0.8,-0.025 -0.525,-0.0375 -0.8375,-0.2875 -0.3125,-0.25 -0.5375,-0.5875 -0.225,-0.35 -0.425,-0.725 -0.1875,-0.375 -0.4625,-0.6625 0,-0.4125 -0.0375,-0.9 -0.025,-0.5 0.0125,-1 0.0375,-0.5 0.2,-0.9375 0.175,-0.4375 0.575,-0.7375 z"
         style=""
         id="path4410" />
      <path
         d="m 460.14992,713.09165 q 0.275,-0.3625 0.6875,-0.5375 0.425,-0.175 0.9,-0.2125 0.4875,-0.0375 0.975,0.0375 0.4875,0.075 0.9,0.2 0,0.15 0.0875,0.3125 0.0875,0.15 0.15,0.3 0.0625,0.15 0.025,0.2875 -0.025,0.1375 -0.2625,0.2625 -0.2875,-0.1625 -0.5125,-0.075 -0.2125,0.0875 -0.3875,0.2875 -0.175,0.1875 -0.325,0.425 -0.15,0.225 -0.3125,0.3375 -0.325,0.7375 -0.6,1.4625 -0.275,0.725 -0.5625,1.4625 -0.275,0.725 -0.5875,1.45 -0.3125,0.7375 -0.7,1.4625 -0.4125,0.4875 -1.0125,0.5625 -0.5875,0.0875 -1.175,-0.25 -0.15,-0.075 -0.3,-0.2125 -0.15,-0.1375 -0.25,-0.325 -0.1,-0.175 -0.1375,-0.4 -0.025,-0.2125 0.0625,-0.4625 l 0.625,-0.7625 q 0.35,-0.025 0.5125,0.1125 0.1625,0.1375 0.225,0.3375 0.075,0.2125 0.0875,0.4375 0.0125,0.2375 0.075,0.3875 0.075,0.15 0.225,0.175 0.1625,0.0375 0.5125,-0.15 l -0.325,-0.4375 q 0.4125,-0.1125 0.5375,-0.375 0.1375,-0.2625 0.125,-0.5875 0,-0.325 -0.075,-0.6625 -0.0625,-0.3375 -0.0625,-0.625 -0.3125,-0.6125 -0.525,-1.175 -0.2125,-0.5625 -0.45,-1.075 -0.225,-0.525 -0.5375,-0.9875 -0.3125,-0.4625 -0.8375,-0.8625 0,-0.2375 0.125,-0.3375 0.125,-0.1125 0.2875,-0.175 0.175,-0.0625 0.35,-0.125 0.1875,-0.0625 0.3,-0.225 0.325,0.0875 0.6375,0.1125 0.325,0.0125 0.6,0.0625 0.2875,0.05 0.525,0.175 0.2375,0.1125 0.4,0.3875 z m 0,0.125 q 0,0.2 -0.1125,0.3375 -0.1,0.1375 -0.25,0.225 -0.1375,0.0875 -0.2875,0.1125 -0.1375,0.0125 -0.225,-0.025 0,0.325 0.025,0.675 0.025,0.35 0.2,0.6 0.125,0.0375 0.25,0.15 0.125,0.1 0.25,0.1875 0.1375,0.0875 0.275,0.1125 0.1375,0.0125 0.2875,-0.1125 0.0375,-0.2875 0.175,-0.65 0.15,-0.3625 0.1875,-0.7 0.05,-0.3375 -0.1,-0.5875 -0.15,-0.25 -0.675,-0.325 z"
         style=""
         id="path4412" />
    </g>
    <g
       style="font-style:normal;font-variant:normal;font-weight:normal;font-stretch:normal;font-size:12.5px;line-height:125%;font-family:'My Underwood';-inkscape-font-specification:'My Underwood';letter-spacing:0px;word-spacing:0px;fill:#000000;fill-opacity:1;stroke:none;stroke-width:1px;stroke-linecap:butt;stroke-linejoin:miter;stroke-opacity:1"
       id="text4860">
      <path
         d="m 398.71959,555.78768 q 0.2125,0.125 0.4,0.1 0.1875,-0.025 0.3625,-0.0375 0.175,-0.025 0.3375,0.0375 0.1625,0.05 0.325,0.3375 0.0375,0.725 0,1.6125 -0.0375,0.875 -0.05,1.825 0,0.9375 0.0625,1.8875 0.0625,0.9375 0.3,1.7875 0.4125,0 0.8125,0 0.4,-0.0125 0.7625,0.025 0.3625,0.0375 0.675,0.1625 0.325,0.1125 0.5625,0.35 -0.075,0.2375 -0.3125,0.3625 -0.225,0.125 -0.55,0.1625 -0.3125,0.0375 -0.6875,0.025 -0.3625,-0.0125 -0.7375,-0.0375 -0.3625,-0.0125 -0.7,-0.025 -0.325,0 -0.5625,0.05 -0.25,-0.0375 -0.5625,-0.0875 -0.3125,-0.0375 -0.6625,-0.0875 -0.35,-0.05 -0.7,-0.1125 -0.35,-0.0625 -0.6625,-0.15 0.025,-0.2625 0.2,-0.375 0.1875,-0.1125 0.4375,-0.15 0.25,-0.0375 0.525,-0.0375 0.275,0 0.475,-0.05 0.2125,-0.0625 0.3,-0.2 0.1,-0.15 0,-0.475 l 0.3125,-0.2125 q -0.075,-0.45 -0.075,-0.975 0.0125,-0.525 0.0375,-1.0625 0.0375,-0.55 0.05,-1.0875 0.025,-0.55 -0.05,-1.05 -0.0625,-0.5125 -0.25,-0.9625 -0.1875,-0.45 -0.5625,-0.8 -0.175,0.125 -0.3375,0.1375 -0.1625,0 -0.325,-0.05 -0.1625,-0.0625 -0.325,-0.175 -0.15,-0.1125 -0.3125,-0.225 0.0875,-0.125 0.25,-0.1875 0.175,-0.075 0.3875,-0.1125 0.2125,-0.0375 0.4375,-0.0625 0.225,-0.0375 0.4125,-0.075 z"
         style=""
         id="path4415" />
      <path
         d="m 409.29654,559.33768 q 0.0875,0.45 0.225,0.8125 0.1375,0.3625 0.2375,0.725 0.1,0.35 0.1125,0.7375 0.025,0.375 -0.125,0.8625 -0.2125,0.2875 -0.425,0.6125 -0.2125,0.3125 -0.4625,0.6 -0.2375,0.275 -0.525,0.4875 -0.2875,0.2 -0.65,0.2375 -0.525,0.0875 -1.1,0.05 -0.575,-0.025 -1.1125,-0.225 -0.525,-0.1875 -0.95,-0.5625 -0.425,-0.3875 -0.625,-0.9875 -0.0375,-0.275 -0.025,-0.625 0.0125,-0.35 0.025,-0.7125 0.025,-0.375 0.025,-0.725 0.0125,-0.35 -0.025,-0.6375 0.0375,-0.4875 0.3125,-0.825 0.2875,-0.3375 0.675,-0.5625 0.4,-0.2375 0.8625,-0.3875 0.4625,-0.15 0.8625,-0.275 0.3625,-0.075 0.725,0.05 0.3625,0.1125 0.7,0.3375 0.3375,0.2125 0.65,0.5 0.325,0.275 0.6125,0.5125 z m -2.1625,-0.2 q -0.1625,0.1125 -0.4625,0.1125 -0.3,0 -0.6,0.0375 -0.2875,0.025 -0.4875,0.1625 -0.2,0.1375 -0.1625,0.5375 l -0.325,-0.1 q 0,0.325 -0.1,0.65 -0.1,0.325 -0.1,0.65 -0.0375,0.4375 0.0625,0.7375 0.1125,0.3 0.325,0.5375 0.2125,0.225 0.5,0.4375 0.2875,0.2 0.6125,0.4375 0.1625,0.0375 0.425,0.0375 0.2625,-0.0125 0.55,-0.1 0.3,-0.1 0.575,-0.2875 0.2875,-0.1875 0.475,-0.5125 0.325,-0.575 0.325,-1.2375 0,-0.675 -0.325,-1.25 -0.1875,0.0375 -0.3125,-0.0875 -0.1125,-0.125 -0.2375,-0.2875 -0.1125,-0.175 -0.2875,-0.325 -0.1625,-0.15 -0.45,-0.15 z"
         style=""
         id="path4417" />
      <path
         d="m 416.45142,560.05018 q 0.025,-0.1625 -0.0125,-0.3875 -0.0375,-0.2375 -0.075,-0.475 -0.0375,-0.2375 -0.0375,-0.45 0.0125,-0.225 0.125,-0.375 0.1125,-0.15 0.3625,-0.2 0.25,-0.05 0.7125,0.0625 0,0.175 0.125,0.275 0.1375,0.1 0.2875,0.2625 0,0.1875 -0.1,0.4625 -0.1,0.2625 -0.2375,0.55 -0.1375,0.2875 -0.2875,0.5625 -0.1375,0.2625 -0.2125,0.4625 0.075,0.3375 0.0375,0.6375 -0.0375,0.2875 -0.1375,0.5875 -0.0875,0.3 -0.2,0.6375 -0.1,0.325 -0.1375,0.7375 0.0875,0.15 0.025,0.3 -0.0625,0.1375 -0.175,0.2875 -0.1125,0.1375 -0.2375,0.275 -0.1125,0.15 -0.15,0.3125 -0.2375,0.0875 -0.375,0 -0.1375,-0.075 -0.225,-0.2125 -0.0875,-0.1375 -0.175,-0.3 -0.075,-0.1625 -0.2,-0.25 0.125,-0.45 0.0625,-0.7625 -0.05,-0.325 -0.1875,-0.5875 -0.1375,-0.275 -0.325,-0.525 -0.175,-0.2625 -0.3,-0.5875 l -0.325,0 q -0.1375,0.2375 -0.225,0.5625 -0.0875,0.325 -0.175,0.675 -0.0875,0.3375 -0.1875,0.6625 -0.0875,0.325 -0.2375,0.5625 -0.15,0.2375 -0.3625,0.375 -0.2125,0.125 -0.5375,0.0625 -0.325,-0.6375 -0.45,-1.3125 -0.125,-0.6875 -0.25,-1.35 -0.125,-0.6625 -0.3375,-1.3 -0.2,-0.6375 -0.6875,-1.2 l -0.225,0 0.1125,-0.75 q 0.1375,-0.0875 0.2625,-0.0375 0.125,0.0375 0.2375,0.125 0.1125,0.0875 0.2,0.1875 0.1,0.1 0.175,0.125 0.075,0.025 0.125,-0.05 0.0625,-0.0875 0.0875,-0.35 0.25,0.1625 0.55,0.1375 0.3125,-0.025 0.6375,-0.025 -0.1625,0.2375 -0.2875,0.55 -0.1125,0.3125 -0.1625,0.65 -0.05,0.325 -0.025,0.6625 0.025,0.325 0.15,0.6 l 0.325,0.325 q 0.3,-0.075 0.45,-0.4 0.1625,-0.325 0.25,-0.725 0.1,-0.4 0.1875,-0.7875 0.0875,-0.4 0.2375,-0.6375 0.15,-0.2375 0.4125,-0.225 0.2625,0 0.725,0.4 0.2375,0.2875 0.25,0.6375 0.0125,0.3375 0,0.6875 -0.0125,0.3375 0.0625,0.65 0.075,0.3125 0.4375,0.5125 l 0,0.6375 q 0.275,-0.025 0.4,-0.1375 0.1375,-0.125 0.175,-0.2875 0.05,-0.175 0.0375,-0.375 -0.0125,-0.2125 -0.0375,-0.4125 -0.0125,-0.2125 -0.0125,-0.4 0,-0.1875 0.0875,-0.325 z"
         style=""
         id="path4419" />
      <path
         d="m 423.03248,559.50018 q 0.3625,0.0375 0.6375,0.1625 0.275,0.1125 0.5125,0.2625 0.25,0.15 0.4875,0.3375 0.2375,0.175 0.5125,0.3375 -0.2625,0.5125 -0.6875,0.75 -0.425,0.2375 -0.9375,0.3 -0.5,0.0625 -1.075,0.0125 -0.5625,-0.0625 -1.125,-0.15 -0.5625,-0.0875 -1.075,-0.15 -0.5125,-0.0625 -0.925,-0.0125 -0.25,-0.0875 -0.4375,-0.225 -0.1875,-0.1375 -0.2875,-0.3 -0.1,-0.175 -0.0875,-0.3625 0.0125,-0.2 0.1625,-0.4125 0.275,-0.075 0.6125,-0.1875 0.3375,-0.125 0.6875,-0.1875 0.3625,-0.0625 0.725,-0.0125 0.3625,0.0375 0.7,0.275 0.2,-0.2 0.375,-0.2375 0.1875,-0.05 0.375,-0.05 0.1875,0 0.3875,-0.0125 0.2125,-0.0125 0.4625,-0.1375 z"
         style=""
         id="path4421" />
      <path
         d="m 427.79595,556.91268 q -0.1125,0.125 -0.1,0.3 0.025,0.175 0.1125,0.375 0.1,0.1875 0.2125,0.3875 0.125,0.1875 0.2125,0.35 0.2375,-0.2 0.5375,-0.3 0.3,-0.1125 0.6125,-0.15 0.3125,-0.05 0.625,-0.025 0.3125,0.0125 0.5875,0.05 0.375,0.1125 0.625,0.375 0.25,0.2625 0.4,0.5875 0.15,0.325 0.2125,0.675 0.0625,0.3375 0.0625,0.6125 -0.1125,0.2125 -0.1125,0.525 0,0.3 0.0375,0.6375 0.0375,0.325 0.075,0.65 0.0375,0.325 0,0.575 0,0.2375 0.125,0.375 0.1375,0.125 0.3125,0.2125 0.1875,0.075 0.3625,0.1375 0.1875,0.0625 0.3,0.1625 0.1125,0.0875 0.1,0.2625 -0.0125,0.1625 -0.225,0.4625 -0.85,0.1125 -1.675,0.125 -0.8125,0.025 -1.6375,-0.0125 -0.8125,-0.025 -1.65,-0.075 -0.8375,-0.0375 -1.725,-0.0375 l -0.425,0 q -0.05,-0.275 0.075,-0.475 0.125,-0.2125 0.325,-0.3875 0.2,-0.1875 0.4125,-0.35 0.225,-0.175 0.3625,-0.3625 0.1375,-0.2 0.125,-0.4375 0,-0.25 -0.2375,-0.575 0.0875,-0.65 0.1875,-1.4 0.1,-0.7625 0.0625,-1.5 -0.0375,-0.7375 -0.3,-1.3875 -0.2625,-0.65 -0.9125,-1.1 0.025,-0.025 0.2125,-0.1125 0.2,-0.0875 0.45,-0.15 0.2625,-0.075 0.5375,-0.0875 0.2875,-0.025 0.4875,0.0625 0.2125,0.0875 0.2875,0.3375 0.0875,0.2375 -0.0375,0.6875 z m 2.1625,1.95 q -0.1875,0.225 -0.4625,0.3875 -0.2625,0.15 -0.55,0.3 -0.275,0.1375 -0.525,0.2875 -0.2375,0.1375 -0.375,0.325 -0.1375,0.175 -0.1375,0.4125 0,0.2375 0.2125,0.5625 l -0.1125,0 0.1125,1.725 q 0.0375,0.2 0.2625,0.2375 0.225,0.0375 0.45,0.0875 0.2375,0.0375 0.3875,0.1625 0.1625,0.1125 0.075,0.475 0.2875,-0.2375 0.575,-0.525 0.2875,-0.2875 0.4875,-0.6125 0.2,-0.325 0.275,-0.6875 0.0875,-0.3625 -0.0375,-0.7625 l 0.1125,0 -0.1125,-1.825 q 0.0375,-0.2 -0.0375,-0.2625 -0.075,-0.075 -0.2,-0.0875 -0.125,-0.025 -0.25,-0.05 -0.1125,-0.025 -0.15,-0.15 z"
         style=""
         id="path4423" />
      <path
         d="m 435.49478,556.17518 q 0.125,-0.0375 0.35,-0.1 0.2375,-0.0625 0.4625,-0.05 0.225,0.0125 0.375,0.1375 0.1625,0.125 0.125,0.45 0.0375,0.1125 0,0.25 -0.0375,0.125 -0.125,0.25 -0.0875,0.125 -0.2,0.225 -0.1125,0.1 -0.2375,0.1375 -0.2125,-0.0875 -0.425,-0.2125 -0.2125,-0.125 -0.3625,-0.2875 -0.1375,-0.1625 -0.15,-0.3625 -0.0125,-0.2 0.1875,-0.4375 z m -0.7625,1.725 q 0.1375,0.1125 0.3375,0.125 0.2,0 0.4125,-0.025 0.225,-0.025 0.45,-0.05 0.225,-0.025 0.4,0.025 0.1875,0.05 0.3125,0.2 0.125,0.15 0.1625,0.4625 -0.05,0.6 -0.0375,1.15 0.0125,0.5375 0.075,1.075 0.0625,0.525 0.15,1.0625 0.1,0.5375 0.225,1.1375 0.1625,0.1625 0.45,0.1875 0.3,0.025 0.575,0.0625 0.2875,0.0375 0.4875,0.1875 0.2125,0.1375 0.2125,0.5375 -0.65,0.0875 -1.2875,0.1875 -0.625,0.1 -1.2625,0.15 -0.6375,0.05 -1.2875,0.0125 -0.65,-0.0375 -1.3375,-0.2375 -0.125,-0.125 -0.1375,-0.2625 0,-0.1375 0.05,-0.2625 0.0625,-0.1375 0.175,-0.25 0.1125,-0.125 0.2375,-0.2 0.4,0.325 0.8,0.2125 0.4125,-0.125 0.8,-0.525 0.175,-0.975 0.1625,-1.875 0,-0.9125 -0.25,-1.8 l -1.8375,-0.325 q -0.125,-0.3625 -0.05,-0.5 0.075,-0.1375 0.25,-0.1875 0.175,-0.05 0.3875,-0.075 0.2125,-0.0375 0.375,-0.2 z"
         style=""
         id="path4425" />
      <path
         d="m 444.10181,559.50018 q 0.3625,0.0375 0.6375,0.1625 0.275,0.1125 0.5125,0.2625 0.25,0.15 0.4875,0.3375 0.2375,0.175 0.5125,0.3375 -0.2625,0.5125 -0.6875,0.75 -0.425,0.2375 -0.9375,0.3 -0.5,0.0625 -1.075,0.0125 -0.5625,-0.0625 -1.125,-0.15 -0.5625,-0.0875 -1.075,-0.15 -0.5125,-0.0625 -0.925,-0.0125 -0.25,-0.0875 -0.4375,-0.225 -0.1875,-0.1375 -0.2875,-0.3 -0.1,-0.175 -0.0875,-0.3625 0.0125,-0.2 0.1625,-0.4125 0.275,-0.075 0.6125,-0.1875 0.3375,-0.125 0.6875,-0.1875 0.3625,-0.0625 0.725,-0.0125 0.3625,0.0375 0.7,0.275 0.2,-0.2 0.375,-0.2375 0.1875,-0.05 0.375,-0.05 0.1875,0 0.3875,-0.0125 0.2125,-0.0125 0.4625,-0.1375 z"
         style=""
         id="path4427" />
      <path
         d="m 454.24029,558.80018 0.325,1.0875 -0.65,-0.2125 q 0,0.1875 -0.025,0.3875 -0.025,0.1875 0,0.35 0.0375,0.15 0.15,0.25 0.125,0.0875 0.4125,0.0875 -0.1625,0 -0.3125,0.025 -0.1375,0.025 -0.225,-0.125 0.1,0.2375 0.1,0.5125 0,0.2625 -0.0375,0.5375 -0.025,0.2625 -0.0625,0.5125 -0.0375,0.25 0,0.4625 0.0375,0.2 0.175,0.35 0.15,0.15 0.475,0.2 0.1125,0.075 0.2375,0.225 0.125,0.15 0.1875,0.3125 0.0625,0.1625 0.0125,0.3125 -0.0375,0.15 -0.2375,0.225 l -2.575,0.1125 q -0.2125,-0.1625 -0.525,-0.1625 -0.3,0.0125 -0.65,0.05 -0.3375,0.05 -0.6875,0.05 -0.3375,0.0125 -0.625,-0.15 -0.3625,0 -0.725,0.0375 -0.3625,0.05 -0.725,0.075 -0.3625,0.0375 -0.725,0.025 -0.3625,-0.0125 -0.725,-0.1375 -0.125,-0.2375 -0.075,-0.3625 0.05,-0.125 0.175,-0.1875 0.1375,-0.075 0.2875,-0.125 0.1625,-0.0625 0.2375,-0.1875 l 0.225,-4.9625 q 0.1125,-0.2125 0.25,-0.2625 0.1375,-0.0625 0.3,-0.0375 0.1625,0.0125 0.3375,0.0875 0.175,0.0625 0.35,0.0875 0.1875,0.0125 0.3625,-0.0375 0.1875,-0.0625 0.35,-0.275 0.4,0.3 0.8125,0.3375 0.4125,0.0375 0.8125,-0.0375 0.4125,-0.075 0.8125,-0.1875 0.4,-0.1125 0.775,-0.1125 0.3875,-0.0125 0.7375,0.175 0.3625,0.175 0.6875,0.6875 z m -4.9625,1.0875 -0.3375,-0.2125 -0.2,0.3125 q 0.1875,0.2125 0.2,0.425 0.025,0.2 -0.0375,0.4 -0.05,0.2 -0.15,0.4 -0.1,0.2 -0.1625,0.3875 -0.05,0.1875 -0.0125,0.3875 0.05,0.1875 0.2625,0.375 l -0.4125,-0.1 q 0,0.1625 0.0625,0.2625 0.075,0.0875 0.15,0.1625 0.0875,0.075 0.175,0.175 0.0875,0.0875 0.125,0.25 l -0.5125,0.1125 q 0.2375,0.125 0.4875,0.15 0.25,0.0125 0.4625,0.0125 0.2125,0 0.3625,0.025 0.15,0.0125 0.1875,0.1375 0.275,-0.4875 0.3125,-1.0375 0.0375,-0.55 -0.025,-1.1 -0.05,-0.5625 -0.1375,-1.0875 -0.075,-0.5375 -0.0375,-0.9875 -0.2875,-0.1125 -0.375,-0.025 -0.075,0.0875 -0.1,0.225 -0.0125,0.1375 -0.05,0.2625 -0.0375,0.125 -0.2375,0.0875 z m 3.35,-0.55 q -0.25,0.25 -0.4625,0.3375 -0.2,0.075 -0.525,0 -0.0375,0.2375 0.05,0.45 0.0875,0.2 0.15,0.4125 0.075,0.2 0.05,0.4125 -0.0125,0.2 -0.25,0.4375 -0.2375,0 -0.325,-0.05 -0.0875,-0.05 -0.0875,-0.125 0,-0.0875 0.05,-0.1875 0.0625,-0.1 0.1,-0.2 0.05,-0.1125 0.05,-0.2125 0.0125,-0.1 -0.1,-0.175 l -0.1125,0 q 0.075,0.325 0.0125,0.65 -0.0625,0.3125 -0.125,0.625 -0.05,0.3 -0.0375,0.6125 0.0125,0.3 0.2625,0.575 l 0.2125,-1.3 0.1,0.1125 q 0.2,0.2125 0.2375,0.4 0.05,0.175 0.0125,0.3625 -0.0375,0.175 -0.125,0.3625 -0.0875,0.1875 -0.125,0.3875 0.1625,0.125 0.325,0.125 0.1625,-0.0125 0.3,-0.0625 0.15,-0.05 0.2625,-0.1125 0.125,-0.0625 0.2,-0.0625 -0.1125,-0.3125 -0.1,-0.6375 0.025,-0.3375 0.0875,-0.6625 0.075,-0.325 0.15,-0.65 0.0875,-0.325 0.1125,-0.6375 0.0375,-0.3125 -0.0375,-0.6125 -0.075,-0.3 -0.3125,-0.575 z m 2.0375,1.85 -0.425,0 0.325,0.4125 0.1,-0.4125 z"
         style=""
         id="path4429" />
      <path
         d="m 457.46744,556.17518 q 0.125,-0.0375 0.35,-0.1 0.2375,-0.0625 0.4625,-0.05 0.225,0.0125 0.375,0.1375 0.1625,0.125 0.125,0.45 0.0375,0.1125 0,0.25 -0.0375,0.125 -0.125,0.25 -0.0875,0.125 -0.2,0.225 -0.1125,0.1 -0.2375,0.1375 -0.2125,-0.0875 -0.425,-0.2125 -0.2125,-0.125 -0.3625,-0.2875 -0.1375,-0.1625 -0.15,-0.3625 -0.0125,-0.2 0.1875,-0.4375 z m -0.7625,1.725 q 0.1375,0.1125 0.3375,0.125 0.2,0 0.4125,-0.025 0.225,-0.025 0.45,-0.05 0.225,-0.025 0.4,0.025 0.1875,0.05 0.3125,0.2 0.125,0.15 0.1625,0.4625 -0.05,0.6 -0.0375,1.15 0.0125,0.5375 0.075,1.075 0.0625,0.525 0.15,1.0625 0.1,0.5375 0.225,1.1375 0.1625,0.1625 0.45,0.1875 0.3,0.025 0.575,0.0625 0.2875,0.0375 0.4875,0.1875 0.2125,0.1375 0.2125,0.5375 -0.65,0.0875 -1.2875,0.1875 -0.625,0.1 -1.2625,0.15 -0.6375,0.05 -1.2875,0.0125 -0.65,-0.0375 -1.3375,-0.2375 -0.125,-0.125 -0.1375,-0.2625 0,-0.1375 0.05,-0.2625 0.0625,-0.1375 0.175,-0.25 0.1125,-0.125 0.2375,-0.2 0.4,0.325 0.8,0.2125 0.4125,-0.125 0.8,-0.525 0.175,-0.975 0.1625,-1.875 0,-0.9125 -0.25,-1.8 l -1.8375,-0.325 q -0.125,-0.3625 -0.05,-0.5 0.075,-0.1375 0.25,-0.1875 0.175,-0.05 0.3875,-0.075 0.2125,-0.0375 0.375,-0.2 z"
         style=""
         id="path4431" />
      <path
         d="m 465.94947,556.06268 q 0.2375,0.275 0.25,0.6125 0.0125,0.325 -0.0375,0.675 -0.05,0.35 -0.075,0.6875 -0.0125,0.325 0.1875,0.6 -0.1625,0.6625 -0.1125,1.3875 0.0625,0.7125 0.225,1.5375 -0.1875,0.1375 -0.2375,0.25 -0.0375,0.1 0,0.2 0.0375,0.1 0.1125,0.2 0.0875,0.0875 0.15,0.1875 0.0625,0.1 0.075,0.2125 0.0125,0.1125 -0.1,0.25 l 1.4125,0.9625 q -0.325,0.4125 -0.6375,0.4875 -0.3125,0.0875 -0.6375,0 -0.3125,-0.075 -0.625,-0.2375 -0.3125,-0.175 -0.6375,-0.275 -0.325,-0.1 -0.6625,-0.05 -0.325,0.05 -0.675,0.4 -0.325,0 -0.6625,-0.1125 -0.3375,-0.1125 -0.6375,-0.3 -0.2875,-0.2 -0.525,-0.45 -0.2375,-0.25 -0.3625,-0.5375 -0.15,-0.525 -0.2375,-1.1375 -0.075,-0.625 -0.0125,-1.225 0.0625,-0.6125 0.3,-1.15 0.2375,-0.5375 0.725,-0.9125 0.0375,-0.2 0.1875,-0.1875 0.1625,0.0125 0.3125,0.05 0.1625,0.0375 0.275,0.0125 0.125,-0.025 0.0875,-0.3 0.1625,0.075 0.4625,0.175 0.3,0.1 0.625,0.15 0.3375,0.05 0.65,0.0125 0.325,-0.0375 0.525,-0.225 -0.075,-0.25 -0.15,-0.5 -0.0625,-0.2625 -0.0625,-0.6 -0.1125,-0.1375 -0.3125,-0.1625 -0.2,-0.0375 -0.425,-0.0375 -0.225,0 -0.4375,0.0125 -0.2,0 -0.3375,-0.0625 -0.125,-0.0625 -0.15,-0.2125 -0.0125,-0.1625 0.1625,-0.4875 l 2.025,0.1 z m -2.9,3.125 q -0.325,0.1625 -0.4625,0.425 -0.125,0.25 -0.175,0.5375 -0.05,0.2875 -0.075,0.6 -0.025,0.3125 -0.15,0.5875 0.125,0.325 0.2625,0.6625 0.15,0.325 0.3625,0.6 0.2125,0.275 0.5,0.4625 0.2875,0.175 0.7,0.2125 0.2,-0.0375 0.325,-0.175 0.1375,-0.15 0.2375,-0.3125 0.1125,-0.175 0.2,-0.3375 0.0875,-0.1625 0.2125,-0.2375 l 0.1125,0.2125 q 0.1625,-0.2875 0.2,-0.5375 0.0375,-0.25 0.0375,-0.475 0,-0.2375 0,-0.4625 0,-0.225 0.0875,-0.475 0.075,-0.525 -0.2,-0.9 -0.2625,-0.375 -0.6625,-0.55 -0.4,-0.1875 -0.8375,-0.15 -0.4375,0.025 -0.675,0.3125 z"
         style=""
         id="path4433" />
    </g>
    <g
       style="font-style:normal;font-variant:normal;font-weight:normal;font-stretch:normal;font-size:20px;line-height:125%;font-family:'My Underwood';-inkscape-font-specification:'My Underwood';letter-spacing:0px;word-spacing:0px;fill:#000000;fill-opacity:1;stroke:none;stroke-width:1px;stroke-linecap:butt;stroke-linejoin:miter;stroke-opacity:1"
       id="text4864">
      <path
         d="m 413.00432,528.56172 q -0.12,0.34 -0.42,0.52 -0.28,0.16 -0.64,0.26 -0.36,0.08 -0.74,0.18 -0.38,0.08 -0.68,0.26 -0.3,0.16 -0.48,0.48 -0.16,0.32 -0.12,0.88 -0.2,1.42 -0.4,2.78 -0.2,1.36 -0.52,2.64 -0.32,1.26 -0.84,2.46 -0.52,1.2 -1.36,2.3 -0.82,-0.9 -1.28,-1.98 -0.44,-1.08 -0.74,-2.22 -0.3,-1.16 -0.56,-2.32 -0.26,-1.18 -0.68,-2.26 -0.4,-1.08 -1.08,-2.02 -0.68,-0.94 -1.84,-1.64 0.06,-0.38 0.36,-0.62 0.3,-0.24 0.72,-0.38 0.42,-0.16 0.86,-0.24 0.46,-0.08 0.8,-0.14 0.58,0.4 1.12,0.4 0.54,0 0.98,0 0.46,0 0.8,0.2 0.34,0.2 0.54,0.98 -0.84,-0.14 -1.28,0.22 -0.44,0.36 -0.6,0.94 -0.14,0.58 -0.04,1.26 0.1,0.68 0.36,1.2 -0.12,0.26 0.06,0.46 0.18,0.2 0.36,0.38 0.18,0.16 0.2,0.34 0.02,0.16 -0.44,0.34 l 1.92,1.58 q -0.08,-0.84 0.2,-1.52 0.28,-0.68 0.6,-1.36 0.32,-0.68 0.54,-1.44 0.22,-0.76 0.02,-1.74 -0.2,-0.06 -0.46,-0.14 -0.26,-0.08 -0.5,-0.24 -0.22,-0.16 -0.36,-0.42 -0.12,-0.28 -0.04,-0.72 0.2,-0.46 0.64,-0.54 0.46,-0.08 1.02,-0.06 0.56,0.02 1.16,-0.02 0.6,-0.04 1.12,-0.44 l 1.72,1.4 z"
         style=""
         id="path4445" />
    </g>
    <g
       style="font-style:normal;font-variant:normal;font-weight:normal;font-stretch:normal;font-size:20px;line-height:125%;font-family:'My Underwood';-inkscape-font-specification:'My Underwood';letter-spacing:0px;word-spacing:0px;fill:#000000;fill-opacity:1;stroke:none;stroke-width:1px;stroke-linecap:butt;stroke-linejoin:miter;stroke-opacity:1"
       id="text4868">
      <path
         d="m 417.4733,530.18898 q 0.38,-0.14 0.76,-0.06 0.38,0.08 0.74,0.24 0.38,0.16 0.74,0.34 0.36,0.18 0.72,0.26 0.38,0.08 0.76,0.02 0.38,-0.08 0.76,-0.42 -0.06,0.64 0,1.24 0.08,0.58 0.16,1.16 0.1,0.58 0.16,1.18 0.08,0.6 0.02,1.24 -0.7,0 -1.18,-0.38 -0.46,-0.4 -0.86,-0.94 -0.38,-0.54 -0.78,-1.08 -0.4,-0.56 -0.98,-0.9 -0.38,-0.56 -0.84,-0.58 -0.46,-0.04 -0.88,0.16 -0.42,0.18 -0.76,0.42 -0.32,0.22 -0.44,0.16 -0.58,0.78 -0.84,1.7 -0.24,0.92 -0.32,1.9 -0.06,0.98 0,1.96 0.06,0.98 0.12,1.88 0.26,0.66 0.7,1.16 0.44,0.48 1,0.74 0.58,0.26 1.24,0.24 0.68,-0.02 1.38,-0.4 0.26,-0.58 0.6,-1.14 0.36,-0.56 0.8,-0.98 0.44,-0.44 0.94,-0.7 0.52,-0.28 1.1,-0.28 0.46,0.32 0.52,0.74 0.06,0.4 -0.06,0.86 -0.12,0.44 -0.3,0.92 -0.16,0.46 -0.16,0.9 -0.4,0.58 -0.92,0.98 -0.52,0.4 -1.12,0.66 -0.6,0.26 -1.24,0.4 -0.62,0.14 -1.2,0.2 -0.98,0.2 -1.66,-0.16 -0.66,-0.38 -1.18,-0.96 -0.52,-0.58 -0.94,-1.2 -0.42,-0.62 -0.88,-0.94 0,-1.82 0.06,-3.9 0.08,-2.08 0.48,-4.04 0.2,-0.64 0.56,-1.04 0.38,-0.42 0.86,-0.7 0.5,-0.28 1.1,-0.46 0.6,-0.2 1.26,-0.4 z"
         style=""
         id="path4448" />
    </g>
    <g
       style="font-style:normal;font-variant:normal;font-weight:normal;font-stretch:normal;font-size:20px;line-height:125%;font-family:'My Underwood';-inkscape-font-specification:'My Underwood';letter-spacing:0px;word-spacing:0px;fill:#000000;fill-opacity:1;stroke:none;stroke-width:1px;stroke-linecap:butt;stroke-linejoin:miter;stroke-opacity:1"
       id="text4872">
      <path
         d="m 424.85886,528.98521 q 0.98,-0.12 1.84,-0.26 0.88,-0.16 1.74,-0.26 0.88,-0.12 1.8,-0.18 0.94,-0.06 2.04,0 -0.1,0.52 -0.3,0.98 -0.2,0.46 -0.72,0.6 -0.32,-0.26 -0.6,-0.28 -0.26,-0.04 -0.5,0.04 -0.24,0.08 -0.48,0.22 -0.24,0.12 -0.5,0.18 0.08,0.26 0,0.5 -0.06,0.24 -0.2,0.48 -0.12,0.22 -0.26,0.42 -0.12,0.2 -0.16,0.4 -0.02,0.18 0.1,0.34 0.14,0.16 0.52,0.28 -0.12,0.26 -0.3,0.52 -0.16,0.24 -0.04,0.5 l 0.34,0.52 -0.68,0.52 q 0.26,0.78 0.36,1.6 0.12,0.8 0.26,1.52 0.14,0.7 0.42,1.26 0.28,0.54 0.86,0.8 0.52,-0.06 0.92,-0.12 0.4,-0.08 0.78,-0.14 0.38,-0.06 0.74,-0.1 0.38,-0.06 0.84,-0.12 0.18,-0.18 0.26,-0.48 0.1,-0.32 0.18,-0.66 0.08,-0.36 0.18,-0.7 0.12,-0.34 0.32,-0.56 0.22,-0.24 0.56,-0.3 0.34,-0.08 0.9,0.08 0.26,0.26 0.46,0.54 0.2,0.26 0.4,0.5 0.22,0.22 0.5,0.36 0.28,0.14 0.72,0.14 -0.06,0.58 -0.18,1.3 -0.1,0.72 -0.38,1.36 -0.26,0.62 -0.78,1.04 -0.52,0.44 -1.42,0.44 -1.36,-0.06 -2.58,-0.18 -1.22,-0.1 -2.44,-0.22 -1.22,-0.12 -2.48,-0.2 -1.24,-0.08 -2.66,-0.08 -0.14,-0.44 -0.1,-0.64 0.06,-0.22 0.22,-0.3 0.18,-0.08 0.42,-0.08 0.26,0 0.52,0 0.28,-0.02 0.54,-0.08 0.26,-0.06 0.42,-0.28 0.2,-1.16 0.34,-2.5 0.16,-1.36 0.18,-2.76 0.02,-1.4 -0.14,-2.74 -0.14,-1.36 -0.52,-2.52 l -2.26,-0.7 0,0 z"
         style=""
         id="path4442" />
    </g>
    <g
       style="font-style:normal;font-variant:normal;font-weight:normal;font-stretch:normal;font-size:20px;line-height:125%;font-family:'My Underwood';-inkscape-font-specification:'My Underwood';letter-spacing:0px;word-spacing:0px;fill:#000000;fill-opacity:1;stroke:none;stroke-width:1px;stroke-linecap:butt;stroke-linejoin:miter;stroke-opacity:1"
       id="text4876">
      <path
         d="m 450.52144,530.84562 q -0.06,0.28 -0.16,0.74 -0.08,0.44 -0.14,0.96 -0.06,0.52 -0.08,1.04 -0.02,0.52 0.06,0.9 l -1.56,0.34 q -0.14,-0.38 -0.16,-0.82 0,-0.44 -0.06,-0.84 -0.06,-0.42 -0.28,-0.76 -0.2,-0.34 -0.72,-0.54 0.16,0.14 0.14,0.32 -0.02,0.18 -0.14,0.38 -0.1,0.2 -0.24,0.4 -0.14,0.2 -0.18,0.38 -0.02,0.16 0.08,0.28 0.12,0.12 0.52,0.16 -0.3,0.3 -0.4,0.66 -0.08,0.36 -0.06,0.74 0.02,0.38 0.08,0.78 0.08,0.4 0.08,0.8 0,0.4 -0.12,0.8 -0.12,0.38 -0.46,0.72 l 0.52,0.84 q -0.12,0.14 -0.34,0.3 -0.2,0.14 -0.44,0.2 -0.24,0.06 -0.5,0.02 -0.24,-0.06 -0.44,-0.34 0.06,-0.32 0.04,-0.7 0,-0.4 -0.14,-0.72 -0.12,-0.32 -0.4,-0.5 -0.26,-0.2 -0.7,-0.14 -0.6,-0.26 -0.88,-0.22 -0.28,0.02 -0.38,0.22 -0.08,0.2 -0.06,0.54 0.04,0.34 0.04,0.7 0.02,0.36 -0.06,0.68 -0.08,0.32 -0.38,0.48 -0.14,0.66 0.08,1.06 0.24,0.4 0.66,0.66 0.42,0.26 0.92,0.44 0.5,0.18 0.92,0.4 0.44,0.2 0.68,0.48 0.26,0.28 0.18,0.76 -0.98,0.06 -1.9,0.14 -0.9,0.08 -1.8,0.1 -0.88,0 -1.78,-0.08 -0.88,-0.08 -1.78,-0.32 0.04,-0.4 0.2,-0.58 0.18,-0.2 0.4,-0.28 0.24,-0.08 0.5,-0.1 0.28,-0.04 0.56,-0.12 0.28,-0.08 0.52,-0.26 0.24,-0.2 0.42,-0.58 -0.18,-0.76 -0.14,-1.62 0.06,-0.86 0.18,-1.74 0.12,-0.9 0.22,-1.78 0.1,-0.88 0.04,-1.7 -0.04,-0.82 -0.34,-1.54 -0.3,-0.72 -0.98,-1.28 l -1.58,-0.5 0.18,-0.86 q 1.5,0.12 2.98,0.02 1.48,-0.1 2.94,-0.16 1.46,-0.06 2.86,0.04 1.42,0.08 2.78,0.6 z m -3.44,1.4 q -0.3,0.08 -0.68,0.02 -0.36,-0.06 -0.74,-0.16 -0.38,-0.1 -0.76,-0.18 -0.38,-0.08 -0.72,-0.02 -0.34,0.04 -0.62,0.28 -0.28,0.22 -0.46,0.74 0.18,0.22 0.2,0.5 0.02,0.26 0,0.56 -0.02,0.28 -0.04,0.54 -0.02,0.26 0.06,0.46 0.08,0.2 0.3,0.3 0.22,0.1 0.7,0.06 l 0.68,-0.86 -0.52,-0.36 1.22,-1.36 q 0.4,0 0.74,-0.04 0.36,-0.06 0.64,0.2 l 0,-0.68 z"
         style=""
         id="path4439" />
    </g>
    <g
       style="font-style:normal;font-variant:normal;font-weight:normal;font-stretch:normal;font-size:20px;line-height:125%;font-family:'My Underwood';-inkscape-font-specification:'My Underwood';letter-spacing:0px;word-spacing:0px;fill:#000000;fill-opacity:1;stroke:none;stroke-width:1px;stroke-linecap:butt;stroke-linejoin:miter;stroke-opacity:1"
       id="text4880">
      <path
         d="m 461.36406,530.63199 q 0,0.64 0.14,1.26 0.16,0.62 0.32,1.24 0.16,0.6 0.24,1.22 0.1,0.62 -0.02,1.28 0.26,0.4 0.32,0.78 0.08,0.38 0.06,0.8 -0.02,0.4 -0.06,0.82 -0.04,0.42 0.02,0.86 -0.12,-0.06 -0.22,-0.04 -0.1,0.02 -0.2,0.1 -0.1,0.06 -0.2,0.16 -0.1,0.08 -0.22,0.14 0.34,0.22 0.42,0.38 0.08,0.16 -0.02,0.3 -0.08,0.14 -0.26,0.28 -0.16,0.14 -0.32,0.3 -0.16,0.14 -0.24,0.34 -0.06,0.18 0.06,0.44 -0.52,0.4 -1.16,0.74 -0.64,0.34 -1.34,0.52 -0.68,0.2 -1.4,0.2 -0.72,0.02 -1.44,-0.24 -0.64,-0.18 -1.1,-0.52 -0.44,-0.36 -0.78,-0.8 -0.34,-0.46 -0.62,-1 -0.28,-0.54 -0.6,-1.12 -0.08,-0.9 -0.18,-1.86 -0.1,-0.96 -0.12,-1.92 0,-0.98 0.12,-1.94 0.12,-0.98 0.5,-1.9 0.46,-0.38 0.92,-0.88 0.48,-0.5 0.98,-0.92 0.5,-0.44 1.06,-0.72 0.56,-0.28 1.2,-0.22 0.52,0.4 1.08,0.54 0.58,0.14 1.12,0.28 0.56,0.12 1.06,0.34 0.5,0.22 0.88,0.76 z m -2.92,0.16 q -0.84,-0.26 -1.4,-0.02 -0.56,0.22 -0.98,0.7 -0.4,0.46 -0.74,1.06 -0.32,0.58 -0.7,1.02 -0.46,0.64 -0.48,1.48 0,0.84 0.24,1.72 0.26,0.86 0.66,1.72 0.4,0.84 0.8,1.5 0.38,0.3 0.92,0.48 0.54,0.18 1.06,0.2 0.52,0.02 0.92,-0.14 0.42,-0.16 0.56,-0.54 -0.06,-0.26 0.06,-0.46 0.14,-0.22 0.32,-0.38 0.2,-0.18 0.4,-0.32 0.2,-0.16 0.28,-0.32 0.1,-0.16 0.02,-0.34 -0.06,-0.2 -0.4,-0.46 0.12,-0.12 0.26,-0.3 0.14,-0.2 0.28,-0.2 l 0,-3.12 q -0.28,-0.32 -0.5,-0.82 -0.2,-0.5 -0.44,-1 -0.22,-0.5 -0.5,-0.9 -0.26,-0.42 -0.64,-0.56 z"
         style=""
         id="path4436" />
    </g>
    <g
       style="font-style:normal;font-variant:normal;font-weight:normal;font-stretch:normal;font-size:12.5px;line-height:125%;font-family:'My Underwood';-inkscape-font-specification:'My Underwood';letter-spacing:0px;word-spacing:0px;fill:#000000;fill-opacity:1;stroke:none;stroke-width:1px;stroke-linecap:butt;stroke-linejoin:miter;stroke-opacity:1"
       id="text4884">
      <path
         d="m 382.90775,801.81238 q 0.3625,0.0375 0.6375,0.1625 0.275,0.1125 0.5125,0.2625 0.25,0.15 0.4875,0.3375 0.2375,0.175 0.5125,0.3375 -0.2625,0.5125 -0.6875,0.75 -0.425,0.2375 -0.9375,0.3 -0.5,0.0625 -1.075,0.0125 -0.5625,-0.0625 -1.125,-0.15 -0.5625,-0.0875 -1.075,-0.15 -0.5125,-0.0625 -0.925,-0.0125 -0.25,-0.0875 -0.4375,-0.225 -0.1875,-0.1375 -0.2875,-0.3 -0.1,-0.175 -0.0875,-0.3625 0.0125,-0.2 0.1625,-0.4125 0.275,-0.075 0.6125,-0.1875 0.3375,-0.125 0.6875,-0.1875 0.3625,-0.0625 0.725,-0.0125 0.3625,0.0375 0.7,0.275 0.2,-0.2 0.375,-0.2375 0.1875,-0.05 0.375,-0.05 0.1875,0 0.3875,-0.0125 0.2125,-0.0125 0.4625,-0.1375 z"
         style=""
         id="path4383" />
      <path
         d="m 395.15873,798.27488 q 0.725,-0.1625 1.35,0.0125 0.6375,0.1625 1.125,0.4 0.05,0.25 0.15,0.475 0.1,0.225 0.1625,0.45 0.075,0.2125 0.075,0.45 0,0.225 -0.1625,0.4625 -0.125,0.25 -0.2875,0.275 -0.1625,0.025 -0.3375,-0.025 -0.1625,-0.0625 -0.3375,-0.15 -0.175,-0.1 -0.3375,-0.1 -0.1625,-0.1625 -0.175,-0.3 -0.0125,-0.15 0.0375,-0.275 0.05,-0.1375 0.125,-0.2625 0.0875,-0.125 0.1,-0.2375 0.025,-0.1125 -0.0625,-0.2125 -0.075,-0.1125 -0.3375,-0.2125 l -1.2,0.3125 q 0.0375,0.125 0.075,0.3375 0.0375,0.2 0.1,0.425 0.075,0.2125 0.2,0.425 0.1375,0.2 0.375,0.3125 -0.1625,0.175 -0.3125,0.2125 -0.1375,0.0375 -0.275,0.0375 -0.1375,0 -0.2875,0 -0.1375,0 -0.3,0.0875 -0.125,0.6 -0.1875,1.075 -0.0625,0.475 -0.0625,0.925 0,0.4375 0.0625,0.9125 0.0625,0.475 0.1875,1.0875 0.2375,0.15 0.55,0.2125 0.325,0.05 0.6,0.1375 0.2875,0.075 0.475,0.25 0.2,0.175 0.2,0.575 -0.525,0.1625 -1.1,0.2375 -0.575,0.0875 -1.175,0.0875 -0.5875,0 -1.1875,-0.0875 -0.6,-0.075 -1.1625,-0.2375 l 0.325,-0.8625 q 0.1125,0.0375 0.225,0.1125 0.125,0.0625 0.25,0.1 0.125,0.0375 0.2375,0.025 0.125,-0.0125 0.2375,-0.1375 0.375,-0.3625 0.45,-0.8125 0.0875,-0.45 0.0375,-0.9625 -0.05,-0.5125 -0.15,-1.0625 -0.1,-0.5625 -0.1,-1.125 -0.1,-0.1375 -0.2875,-0.2 -0.175,-0.0625 -0.3625,-0.0875 -0.1875,-0.0375 -0.375,-0.075 -0.1875,-0.0375 -0.3125,-0.1125 -0.1125,-0.0875 -0.15,-0.25 -0.0375,-0.175 0.075,-0.475 0.0875,-0.075 0.225,-0.1875 0.1375,-0.1125 0.3125,-0.025 0.0875,0.1125 0.2375,0.125 0.15,0.0125 0.325,-0.05 0.175,-0.075 0.3375,-0.2 0.175,-0.1375 0.2875,-0.3 0.075,-0.25 0.2,-0.5125 0.125,-0.275 0.3125,-0.4875 0.1875,-0.225 0.425,-0.3625 0.25,-0.15 0.575,-0.15 z"
         style=""
         id="path4385" />
      <path
         d="m 399.92318,803.88738 q 0.3375,-0.0375 0.6375,0.05 0.3,0.0875 0.525,0.275 0.2375,0.1875 0.3875,0.45 0.1625,0.25 0.2,0.525 0,0.4125 -0.3,0.775 -0.2875,0.35 -0.6875,0.5125 -0.325,0.175 -0.6375,0.1375 -0.3,-0.025 -0.575,-0.175 -0.275,-0.1625 -0.4875,-0.425 -0.2125,-0.275 -0.325,-0.5875 -0.175,-0.2875 -0.0625,-0.5 0.125,-0.2125 0.3625,-0.3875 0.25,-0.175 0.525,-0.325 0.2875,-0.15 0.4375,-0.325 z"
         style=""
         id="path4387" />
      <path
         d="m 403.02103,800.83738 q 0.3,-0.35 0.7,-0.55 0.4125,-0.2 0.85,-0.25 0.45,-0.0625 0.9,0.025 0.45,0.0875 0.8375,0.3 0.4,0.2125 0.7,0.5625 0.3,0.3375 0.4375,0.8 0.0375,0.2375 0,0.4875 -0.0375,0.25 -0.1625,0.4625 -0.125,0.2 -0.3375,0.3375 -0.2,0.125 -0.475,0.125 -0.375,-0.025 -0.55,-0.225 -0.1625,-0.2125 -0.225,-0.4875 -0.0625,-0.275 -0.1,-0.5625 -0.025,-0.3 -0.125,-0.525 -0.1,-0.225 -0.3375,-0.3125 -0.2375,-0.1 -0.725,0.0375 -0.3625,0.2125 -0.6625,0.55 -0.3,0.3375 -0.5,0.7625 -0.1875,0.425 -0.2375,0.9125 -0.0375,0.4875 0.125,1.0125 0.325,0.575 0.7875,0.85 0.475,0.275 1.0375,0.4375 0.325,0 0.625,-0.1625 0.3,-0.1625 0.5625,-0.4125 0.2625,-0.25 0.475,-0.55 0.225,-0.3 0.3875,-0.5875 0.325,0.075 0.4125,0.3125 0.0875,0.225 0.0625,0.5 -0.0125,0.275 -0.0875,0.5375 -0.0625,0.25 -0.0625,0.3625 -0.25,0.2875 -0.5625,0.525 -0.3125,0.2375 -0.675,0.3875 -0.3625,0.15 -0.7625,0.2 -0.4,0.0625 -0.8,-0.025 -0.525,-0.0375 -0.8375,-0.2875 -0.3125,-0.25 -0.5375,-0.5875 -0.225,-0.35 -0.425,-0.725 -0.1875,-0.375 -0.4625,-0.6625 0,-0.4125 -0.0375,-0.9 -0.025,-0.5 0.0125,-1 0.0375,-0.5 0.2,-0.9375 0.175,-0.4375 0.575,-0.7375 z"
         style=""
         id="path4389" />
      <path
         d="m 413.24349,800.31238 q 0.2,0.125 0.475,0.1125 0.2875,-0.025 0.5625,-0.025 0.2875,0 0.525,0.1 0.25,0.1 0.375,0.4625 -0.625,0.2125 -0.9875,0.6 -0.35,0.375 -0.5625,0.8625 -0.2125,0.475 -0.325,1.0375 -0.1125,0.5625 -0.25,1.15 -0.125,0.575 -0.325,1.1375 -0.2,0.55 -0.575,1.0375 -0.325,0.1625 -0.55,0.1375 -0.225,-0.0125 -0.3875,-0.15 -0.15,-0.1375 -0.25,-0.3625 -0.1,-0.225 -0.1875,-0.475 -0.075,-0.25 -0.1625,-0.4875 -0.075,-0.2375 -0.175,-0.4 -0.1875,-0.2875 -0.3,-0.675 -0.1125,-0.3875 -0.2125,-0.8 -0.0875,-0.4125 -0.2,-0.8 -0.1125,-0.4 -0.3125,-0.725 -0.2,-0.325 -0.525,-0.525 -0.325,-0.2125 -0.825,-0.25 l 0,-0.625 q 0.3625,-0.0875 0.9,-0.2125 0.5375,-0.125 1.075,-0.125 0.5375,-0.0125 0.975,0.2 0.4375,0.2 0.5875,0.7625 -0.15,0 -0.2625,0.0875 -0.1,0.0875 -0.1875,0.2125 -0.0875,0.125 -0.1625,0.2625 -0.0625,0.125 -0.1375,0.2125 0.0875,0.1 0.1375,0.275 0.05,0.175 0.1,0.3625 0.05,0.175 0.1125,0.3375 0.0625,0.1625 0.1625,0.25 0.1125,0.075 0.2625,0.05 0.1625,-0.025 0.4125,-0.2125 0.2125,-0.2375 0.2125,-0.55 0,-0.325 -0.075,-0.6625 -0.075,-0.3375 -0.15,-0.65 -0.075,-0.325 -0.0125,-0.55 0.0625,-0.2375 0.325,-0.35 0.275,-0.1125 0.9,-0.0375 z"
         style=""
         id="path4391" />
      <path
         d="m 427.47211,798.66296 0,3.39966 3.39966,0 0,1.0376 -3.39966,0 0,3.39966 -1.02539,0 0,-3.39966 -3.39966,0 0,-1.0376 3.39966,0 0,-3.39966 1.02539,0 z"
         style=""
         id="path4393" />
    </g>
    <path
       style="fill:none;fill-rule:evenodd;stroke:#ff0000;stroke-width:0.35433072;stroke-linecap:butt;stroke-linejoin:miter;stroke-miterlimit:4;stroke-dasharray:none;stroke-opacity:1"
       d="m 569.27595,836.36218 4.5,4.5 9,-9 9,9 4.5,-4.5 0,0 0,0"
       id="path4927"
       inkscape:connector-curvature="0" />
    <path
       style="fill:none;fill-rule:evenodd;stroke:#ff0000;stroke-width:0.35433072;stroke-linecap:butt;stroke-linejoin:miter;stroke-miterlimit:4;stroke-dasharray:none;stroke-opacity:1"
       d="m 418.5,872.36218 9,0 0,-9 9,0 0,9 9,0 0,0 0,0"
       id="path4929"
       inkscape:connector-curvature="0" />
    <path
       style="fill:none;fill-rule:evenodd;stroke:#ff0000;stroke-width:0.35433072;stroke-linecap:butt;stroke-linejoin:miter;stroke-miterlimit:4;stroke-dasharray:none;stroke-opacity:1"
       d="m 463.5,782.36218 4.5,4.5 0,-9 9,9 0,-9 9,9 0,-9 4.5,4.5"
       id="path4931"
       inkscape:connector-curvature="0" />
    <path
       style="fill:none;fill-rule:evenodd;stroke:#ff0000;stroke-width:0.35433072;stroke-linecap:butt;stroke-linejoin:miter;stroke-miterlimit:4;stroke-dasharray:none;stroke-opacity:1"
       d="m 537.75,825.11218 4.5,0 0,-9 4.5,0 0,9 4.5,0 0,-9 4.5,0 0,9 4.5,0 0,-9 4.5,0"
       id="path4933"
       inkscape:connector-curvature="0" />
    <path
       style="fill:none;fill-rule:evenodd;stroke:#ff0000;stroke-width:0.35433072;stroke-linecap:butt;stroke-linejoin:miter;stroke-miterlimit:4;stroke-dasharray:none;stroke-opacity:1"
       d="m 609.75,825.0236 0,4.5 -22.5,22.5 0,40.5 0,0 0,0 0,0"
       id="path4937"
       inkscape:connector-curvature="0" />
    <path
       style="fill:none;fill-rule:evenodd;stroke:#ff0000;stroke-width:0.35433072;stroke-linecap:butt;stroke-linejoin:miter;stroke-miterlimit:4;stroke-dasharray:none;stroke-opacity:1"
       d="m 596.25,865.61218 9,0"
       id="path4939"
       inkscape:connector-curvature="0" />
    <path
       inkscape:connector-curvature="0"
       id="path4941"
       d="m 463.52595,867.86218 4.5,4.5 9,-9 9,9 4.5,-4.5 0,0 0,0"
       style="fill:none;fill-rule:evenodd;stroke:#ff0000;stroke-width:0.35433072;stroke-linecap:butt;stroke-linejoin:miter;stroke-miterlimit:4;stroke-dasharray:none;stroke-opacity:1" />
    <path
       inkscape:connector-curvature="0"
       id="path4943"
       d="m 542.25,834.11218 4.5,4.5 0,-9 9,9 0,-9 9,9 0,-9 4.5,4.5"
       style="fill:none;fill-rule:evenodd;stroke:#ff0000;stroke-width:0.35433072;stroke-linecap:butt;stroke-linejoin:miter;stroke-miterlimit:4;stroke-dasharray:none;stroke-opacity:1" />
    <path
       inkscape:connector-curvature="0"
       id="path4951"
       d="m 576,773.36218 -4.5,4.5 0,-9 -9,9 0,-9 -9,9 0,-9 -4.5,4.5"
       style="fill:none;fill-rule:evenodd;stroke:#ff0000;stroke-width:0.35433072;stroke-linecap:butt;stroke-linejoin:miter;stroke-miterlimit:4;stroke-dasharray:none;stroke-opacity:1" />
    <path
       style="fill:none;fill-opacity:1;stroke:#ff0000;stroke-width:0.47244096;stroke-miterlimit:4;stroke-dasharray:none;stroke-opacity:1"
       id="path4345"
       sodipodi:type="arc"
       sodipodi:cx="432"
       sodipodi:cy="836.36218"
       sodipodi:rx="18"
       sodipodi:ry="18"
       sodipodi:start="2.3561945"
       sodipodi:end="0.78539816"
       d="m 419.27208,849.0901 a 18,18 0 0 1 0,-25.45584 18,18 0 0 1 25.45584,0 18,18 0 0 1 0,25.45584"
       sodipodi:open="true" />
    <path
       sodipodi:open="true"
       d="m 464.27208,849.0901 a 18,18 0 0 1 0,-25.45584 18,18 0 0 1 25.45584,0 18,18 0 0 1 0,25.45584"
       sodipodi:end="0.78539816"
       sodipodi:start="2.3561945"
       sodipodi:ry="18"
       sodipodi:rx="18"
       sodipodi:cy="836.36218"
       sodipodi:cx="477"
       sodipodi:type="arc"
       id="path4347"
       style="fill:none;fill-opacity:1;stroke:#ff0000;stroke-width:0.47244096;stroke-miterlimit:4;stroke-dasharray:none;stroke-opacity:1" />
    <path
       style="fill:none;fill-rule:evenodd;stroke:#ff0000;stroke-width:0.35433072;stroke-linecap:butt;stroke-linejoin:miter;stroke-miterlimit:4;stroke-dasharray:none;stroke-opacity:1"
       d="m 463.52595,746.36218 4.5,4.5 9,-9 9,9 4.5,-4.5 0,0 0,0"
       id="path4349"
       inkscape:connector-curvature="0" />
    <g
       id="g4469"
       transform="matrix(0.20000006,0,0,0.20000006,392.39999,779.7897)"
       style="stroke:#ff0000;stroke-width:1.77165306;stroke-miterlimit:4;stroke-dasharray:none;stroke-opacity:1">
      <path
         inkscape:connector-curvature="0"
         id="path4463"
         d="m 153,800.36218 0,90 54,0 0,-9 -45,0 0,-81 z"
         style="fill:none;fill-rule:evenodd;stroke:#ff0000;stroke-width:1.77165306;stroke-linecap:butt;stroke-linejoin:miter;stroke-miterlimit:4;stroke-dasharray:none;stroke-opacity:1" />
      <path
         inkscape:connector-curvature="0"
         id="path4465"
         d="m 171,800.36218 0,9 45,0 0,81 9,0 0,-90 z"
         style="fill:none;fill-rule:evenodd;stroke:#ff0000;stroke-width:1.77165306;stroke-linecap:butt;stroke-linejoin:miter;stroke-miterlimit:4;stroke-dasharray:none;stroke-opacity:1" />
      <path
         inkscape:connector-curvature="0"
         id="path4467"
         d="m 234,800.36218 0,90 9,0 0,-90 z"
         style="fill:none;fill-rule:evenodd;stroke:#ff0000;stroke-width:1.77165306;stroke-linecap:butt;stroke-linejoin:miter;stroke-miterlimit:4;stroke-dasharray:none;stroke-opacity:1" />
    </g>
  </g>
  <g
     inkscape:groupmode="layer"
     id="layer5"
     inkscape:label="Knobs outlines"
     style="display:none">
    <circle
       id="path3884"
       style="display:inline;fill:none;stroke:#000000;stroke-width:0.35433072;stroke-miterlimit:4;stroke-dasharray:none;stroke-opacity:1"
       cx="405"
       cy="764.36218"
       r="26.427053" />
    <ellipse
       cy="656.36218"
       cx="432"
       style="display:inline;fill:none;stroke:#000000;stroke-width:0.63709003;stroke-miterlimit:4;stroke-dasharray:none;stroke-opacity:1"
       id="circle5445"
       rx="47.516102"
       ry="47.516098" />
    <circle
       id="circle5447"
       style="display:inline;fill:none;stroke:#000000;stroke-width:0.35433072;stroke-miterlimit:4;stroke-dasharray:none;stroke-opacity:1"
       cx="204.75"
       cy="593.36218"
       r="26.427053" />
    <circle
       r="26.427053"
       cy="604.61218"
       cx="202.5"
       style="display:inline;fill:none;stroke:#000000;stroke-width:0.35433072;stroke-miterlimit:4;stroke-dasharray:none;stroke-opacity:1"
       id="circle5449" />
    <circle
       id="circle5523"
       style="display:inline;fill:none;stroke:#000000;stroke-width:0.35433072;stroke-miterlimit:4;stroke-dasharray:none;stroke-opacity:1"
       cx="387"
       cy="899.36218"
       r="16.718628" />
    <circle
       cy="584.36218"
       cx="373.5"
       style="display:inline;fill:none;stroke:#000000;stroke-width:0.18577147;stroke-miterlimit:4;stroke-dasharray:none;stroke-opacity:1"
       id="circle5525"
       r="8.7653818" />
    <circle
       id="circle5527"
       style="display:inline;fill:none;stroke:#000000;stroke-width:0.35433072;stroke-miterlimit:4;stroke-dasharray:none;stroke-opacity:1"
       cx="477"
       cy="899.36218"
       r="16.718628" />
    <circle
       r="16.718628"
       cy="899.36218"
       cx="432"
       style="display:inline;fill:none;stroke:#000000;stroke-width:0.35433072;stroke-miterlimit:4;stroke-dasharray:none;stroke-opacity:1"
       id="circle5529" />
    <circle
       r="8.7653818"
       id="circle4838"
       style="display:inline;fill:none;stroke:#000000;stroke-width:0.18577147;stroke-miterlimit:4;stroke-dasharray:none;stroke-opacity:1"
       cx="490.5"
       cy="584.36218" />
    <circle
       cy="728.36218"
       cx="490.5"
       style="display:inline;fill:none;stroke:#000000;stroke-width:0.18577147;stroke-miterlimit:4;stroke-dasharray:none;stroke-opacity:1"
       id="circle4840"
       r="8.7653818" />
    <circle
       r="8.7653818"
       id="circle4842"
       style="display:inline;fill:none;stroke:#000000;stroke-width:0.18577147;stroke-miterlimit:4;stroke-dasharray:none;stroke-opacity:1"
       cx="490.5"
       cy="800.36218" />
    <circle
       r="8.7653818"
       id="circle4947"
       style="display:inline;fill:none;stroke:#000000;stroke-width:0.18577147;stroke-miterlimit:4;stroke-dasharray:none;stroke-opacity:1"
       cx="373.5"
       cy="728.36218" />
  </g>
</svg>
